<svg width="82" height="82" viewBox="0 0 82 82" fill="none" xmlns="http://www.w3.org/2000/svg">
<path d="M1.5 40C1.5 30.5295 1.50319 23.5775 2.21886 18.2544C2.92873 12.9745 4.31475 9.5223 6.91852 6.91852C9.5223 4.31475 12.9745 2.92873 18.2544 2.21886C23.5775 1.50319 30.5295 1.5 40 1.5H42C51.4705 1.5 58.4225 1.50319 63.7456 2.21886C69.0255 2.92873 72.4777 4.31475 75.0815 6.91852C77.6853 9.5223 79.0713 12.9745 79.7811 18.2544C80.4968 23.5775 80.5 30.5295 80.5 40V42C80.5 51.4705 80.4968 58.4225 79.7811 63.7456C79.0713 69.0255 77.6853 72.4777 75.0815 75.0815C72.4777 77.6853 69.0255 79.0713 63.7456 79.7811C58.4225 80.4968 51.4705 80.5 42 80.5H40C30.5295 80.5 23.5775 80.4968 18.2544 79.7811C12.9745 79.0713 9.5223 77.6853 6.91852 75.0815C4.31475 72.4777 2.92873 69.0255 2.21886 63.7456C1.50319 58.4225 1.5 51.4705 1.5 42V40Z" fill="#FFF9D9"/>
<path opacity="0.2" d="M36.8 52.5499L29.45 45.2L26.218 54.1085C26.1286 54.3423 26.1089 54.5969 26.1611 54.8417C26.2133 55.0864 26.3352 55.3108 26.5122 55.4878C26.6891 55.6648 26.9135 55.7867 27.1583 55.8389C27.4031 55.8911 27.6577 55.8713 27.8914 55.782L36.8 52.5499Z" fill="#54298B"/>
<path opacity="0.2" d="M52.6206 44.8341L52.6208 44.8343C52.7704 44.9826 52.8801 45.1664 52.9397 45.3684C52.9993 45.5705 53.0068 45.7844 52.9616 45.9902C52.9164 46.1959 52.8199 46.387 52.6811 46.5455C52.5423 46.704 52.3657 46.8248 52.1677 46.8968L45.4785 49.3277L32.6723 36.5215L35.1032 29.8323C35.1752 29.6343 35.2961 29.4577 35.4546 29.3189C35.6131 29.1801 35.8041 29.0836 36.0098 29.0384C36.2156 28.9932 36.4295 29.0007 36.6316 29.0603C36.8337 29.1199 37.0174 29.2296 37.1657 29.3792L37.1659 29.3794L52.6206 44.8341Z" fill="#54298B" stroke="#54298B" stroke-width="0.125"/>
<path d="M26.218 54.1086L35.0446 29.811C35.1201 29.6031 35.247 29.4176 35.4134 29.2719C35.5799 29.1261 35.7804 29.0248 35.9965 28.9773C36.2126 28.9299 36.4371 28.9378 36.6493 29.0004C36.8615 29.0629 37.0544 29.1781 37.2102 29.3352L52.6649 44.7899C52.822 44.9456 52.9372 45.1386 52.9997 45.3508C53.0623 45.563 53.0702 45.7875 53.0227 46.0036C52.9753 46.2196 52.8739 46.4202 52.7282 46.5866C52.5825 46.7531 52.397 46.8799 52.1891 46.9555L27.8914 55.7821C27.6577 55.8714 27.4031 55.8912 27.1583 55.839C26.9135 55.7868 26.6891 55.6648 26.5122 55.4879C26.3352 55.3109 26.2133 55.0865 26.1611 54.8418C26.1089 54.597 26.1286 54.3424 26.218 54.1086V54.1086Z" stroke="#54298B" stroke-width="2" stroke-linecap="round" stroke-linejoin="round"/>
<path d="M47.5625 31.8125C47.5625 31.8125 47.5625 27.875 51.5 27.875C55.4375 27.875 55.4375 23.9375 55.4375 23.9375" stroke="#54298B" stroke-width="2" stroke-linecap="round" stroke-linejoin="round"/>
<path d="M36.8 52.5499L29.45 45.2" stroke="#54298B" stroke-width="2" stroke-linecap="round" stroke-linejoin="round"/>
<path d="M43.625 22.625V26.5625" stroke="#54298B" stroke-width="2" stroke-linecap="round" stroke-linejoin="round"/>
<path d="M55.4375 38.375L58.0625 41" stroke="#54298B" stroke-width="2" stroke-linecap="round" stroke-linejoin="round"/>
<path d="M55.4375 33.125L59.375 31.8125" stroke="#54298B" stroke-width="2" stroke-linecap="round" stroke-linejoin="round"/>
<path d="M32.6 36.5376L45.4625 49.4001" stroke="#54298B" stroke-width="2" stroke-linecap="round" stroke-linejoin="round"/>
<path d="M1.5 40C1.5 30.5295 1.50319 23.5775 2.21886 18.2544C2.92873 12.9745 4.31475 9.5223 6.91852 6.91852C9.5223 4.31475 12.9745 2.92873 18.2544 2.21886C23.5775 1.50319 30.5295 1.5 40 1.5H42C51.4705 1.5 58.4225 1.50319 63.7456 2.21886C69.0255 2.92873 72.4777 4.31475 75.0815 6.91852C77.6853 9.5223 79.0713 12.9745 79.7811 18.2544C80.4968 23.5775 80.5 30.5295 80.5 40V42C80.5 51.4705 80.4968 58.4225 79.7811 63.7456C79.0713 69.0255 77.6853 72.4777 75.0815 75.0815C72.4777 77.6853 69.0255 79.0713 63.7456 79.7811C58.4225 80.4968 51.4705 80.5 42 80.5H40C30.5295 80.5 23.5775 80.4968 18.2544 79.7811C12.9745 79.0713 9.5223 77.6853 6.91852 75.0815C4.31475 72.4777 2.92873 69.0255 2.21886 63.7456C1.50319 58.4225 1.5 51.4705 1.5 42V40Z" stroke="#F5ECBC" stroke-width="3"/>
</svg>
