<svg width="30" height="36" viewBox="0 0 30 36" fill="none" xmlns="http://www.w3.org/2000/svg">
<path d="M24.6792 33.87C22.8009 35.6908 20.75 35.4033 18.7759 34.5408C16.6867 33.6592 14.77 33.6208 12.5659 34.5408C9.80586 35.7292 8.3492 35.3842 6.70086 33.87C-2.65247 24.2292 -1.27247 9.5475 9.34586 9.01083C11.9334 9.145 13.735 10.4292 15.2492 10.5442C17.5109 10.0842 19.6767 8.76167 22.0917 8.93417C24.9859 9.16417 27.1709 10.3142 28.6084 12.3842C22.6284 15.9683 24.0467 23.8458 29.5284 26.05C28.4359 28.925 27.0175 31.7808 24.66 33.8892L24.6792 33.87ZM15.0575 8.89583C14.77 4.62167 18.2392 1.095 22.2259 0.75C22.7817 5.695 17.7409 9.375 15.0575 8.89583Z" fill="#54298B"/>
</svg>
