<svg width="151" height="34" viewBox="0 0 151 34" fill="none" xmlns="http://www.w3.org/2000/svg">
<path d="M12.6878 0.285156H8.4585V4.49953H12.6878V0.285156Z" fill="#878787"/>
<path d="M12.6878 29.7852H8.4585V33.9995H12.6878V29.7852Z" fill="#878787"/>
<path d="M8.45883 4.5H4.22949V8.7138H8.45883V4.5Z" fill="#878787"/>
<path d="M8.45883 25.5703H4.22949V29.7847H8.45883V25.5703Z" fill="#878787"/>
<path d="M4.22933 8.71289H0V25.5704H4.22933V8.71289Z" fill="#878787"/>
<path d="M56.4401 4.07216V4.04961C56.4401 2.70726 55.4521 1.58863 54.0592 1.58863C52.6668 1.58863 51.7008 2.68471 51.7008 4.02822V4.04961C51.7008 5.39313 52.6888 6.51234 54.0818 6.51234C55.4747 6.51234 56.4401 5.41452 56.4401 4.07216ZM49.8931 4.07216V4.04961C49.8931 1.82276 51.6562 0 54.0824 0C56.5074 0 58.2485 1.80195 58.2485 4.02822V4.04961C58.2485 6.27763 56.4854 8.10154 54.0597 8.10154C51.6335 8.10154 49.8931 6.29902 49.8931 4.07216Z" fill="#878787"/>
<path d="M64.8527 4.10838C65.7171 4.10838 66.2219 3.59387 66.2219 2.92212V2.89899C66.2219 2.12722 65.6835 1.71388 64.8185 1.71388H63.4818V4.10838H64.8527ZM61.7529 0.158203H64.9647C66.8397 0.158203 67.9745 1.26585 67.9745 2.86662V2.88801C67.9745 4.7021 66.5589 5.64209 64.7964 5.64209H63.4818V7.99151H61.7529V0.158203Z" fill="#878787"/>
<path d="M71.2109 0.158203H77.1401V1.69191H72.9294V3.28054H76.6348V4.81367H72.9294V6.4578H77.1964V7.99093H71.2109V0.158203Z" fill="#878787"/>
<path d="M80.8213 0.158203H82.4161L86.0984 4.98132V0.158203H87.8052V7.99093H86.3345L82.5275 3.01172V7.99093H80.8213V0.158203Z" fill="#878787"/>
<path d="M53.1488 14.683H50.7568V13.0938H57.2702V14.683H54.8777V20.9276H53.1488V14.683Z" fill="#878787"/>
<path d="M60.9551 13.0938H66.8848V14.6275H62.6735V16.2172H66.3789V17.7492H62.6735V19.3945H66.9405V20.9276H60.9551V13.0938Z" fill="#878787"/>
<path d="M70.2412 17.0329V17.0092C70.2412 14.7829 71.9254 12.959 74.34 12.959C75.8223 12.959 76.7099 13.4521 77.4398 14.1684L76.3386 15.4327C75.733 14.8852 75.1145 14.5488 74.329 14.5488C73.0039 14.5488 72.0496 15.6449 72.0496 16.9889V17.0098C72.0496 18.3533 72.9813 19.4725 74.329 19.4725C75.2276 19.4725 75.7776 19.1146 76.3955 18.5544L77.4955 19.6633C76.6873 20.524 75.7887 21.0617 74.2727 21.0617C71.9596 21.0611 70.2412 19.2811 70.2412 17.0329Z" fill="#878787"/>
<path d="M80.9526 13.0938H82.6821V16.1947H85.8712V13.0938H87.6012V20.9276H85.8712V17.7827H82.6821V20.9276H80.9526V13.0938Z" fill="#878787"/>
<path d="M91.7261 13.0938H93.3209L97.0043 17.9169V13.0938H98.7112V20.9276H97.2399L93.4335 15.9484V20.9276H91.7261V13.0938Z" fill="#878787"/>
<path d="M108.514 17.0329V17.0092C108.514 15.6674 107.525 14.5482 106.133 14.5482C104.741 14.5482 103.774 15.6443 103.774 16.9884V17.0092C103.774 18.3527 104.763 19.4719 106.156 19.4719C107.547 19.4719 108.514 18.3752 108.514 17.0329ZM101.967 17.0329V17.0092C101.967 14.7829 103.73 12.959 106.156 12.959C108.581 12.959 110.321 14.7615 110.321 16.9884V17.0092C110.321 19.2372 108.559 21.0611 106.133 21.0611C103.707 21.0611 101.967 19.2592 101.967 17.0329Z" fill="#878787"/>
<path d="M113.737 13.0938H115.467V19.361H119.386V20.9276H113.737V13.0938Z" fill="#878787"/>
<path d="M128.341 17.0329V17.0092C128.341 15.6674 127.353 14.5482 125.96 14.5482C124.568 14.5482 123.602 15.6443 123.602 16.9884V17.0092C123.602 18.3527 124.59 19.4719 125.983 19.4719C127.376 19.4719 128.341 18.3752 128.341 17.0329ZM121.794 17.0329V17.0092C121.794 14.7829 123.558 12.959 125.983 12.959C128.409 12.959 130.15 14.7615 130.15 16.9884V17.0092C130.15 19.2372 128.386 21.0611 125.961 21.0611C123.534 21.0611 121.794 19.2592 121.794 17.0329Z" fill="#878787"/>
<path d="M132.985 17.0329V17.0092C132.985 14.7829 134.726 12.959 137.107 12.959C138.522 12.959 139.375 13.34 140.195 14.0325L139.106 15.3425C138.499 14.8396 137.96 14.5482 137.051 14.5482C135.793 14.5482 134.793 15.6558 134.793 16.9884V17.0092C134.793 18.4423 135.782 19.4939 137.174 19.4939C137.803 19.4939 138.365 19.3372 138.803 19.0244V17.9047H137.062V16.4172H140.476V19.8188C139.667 20.5015 138.555 21.0611 137.118 21.0611C134.67 21.0611 132.985 19.3488 132.985 17.0329Z" fill="#878787"/>
<path d="M146.25 17.8394L143.229 13.0938H145.251L147.126 16.2392L149.035 13.0938H151L147.979 17.8064V20.9276H146.25V17.8394Z" fill="#878787"/>
<path d="M50.7559 26.043H56.7408V27.6096H52.4847V29.2775H56.236V30.8441H52.4847V33.8769H50.7559V26.043Z" fill="#878787"/>
<path d="M60.1689 30.5192V26.043H61.8978V30.4753C61.8978 31.7494 62.5377 32.4102 63.5936 32.4102C64.6495 32.4102 65.2894 31.7731 65.2894 30.5314V26.043H67.0183V30.4631C67.0183 32.8357 65.6822 33.9994 63.571 33.9994C61.4604 33.9994 60.1689 32.8247 60.1689 30.5192Z" fill="#878787"/>
<path d="M70.5107 26.043H72.105L75.789 30.8667V26.043H77.4952V33.8769H76.0245L72.2176 28.8959V33.8769H70.5107V26.043Z" fill="#878787"/>
<path d="M83.9058 32.3206C85.3208 32.3206 86.2757 31.369 86.2757 29.9833V29.959C86.2757 28.5733 85.3208 27.5981 83.9058 27.5981H82.5697V32.3206H83.9058ZM80.8408 26.043H83.9064C86.3772 26.043 88.0841 27.7339 88.0841 29.9377V29.959C88.0841 32.1639 86.3772 33.8763 83.9064 33.8763H80.8408V26.043Z" fill="#878787"/>
<path d="M29.6054 0.285156H25.3755V4.49953H29.6054V0.285156Z" fill="#878787"/>
<path d="M33.8348 25.5723H29.6055V29.7866H33.8348V25.5723Z" fill="#878787"/>
<path d="M29.6054 29.7871H25.3755V34.0009H29.6054V29.7871Z" fill="#878787"/>
<path d="M33.8348 4.5H29.6055V8.71437H33.8348V4.5Z" fill="#878787"/>
<path d="M38.0633 8.71484H33.834V25.5723H38.0633V8.71484Z" fill="#878787"/>
</svg>
