<svg width="47" height="46" viewBox="0 0 47 46" fill="none" xmlns="http://www.w3.org/2000/svg">
<g clip-path="url(#clip0_1402_1858)">
<path d="M23.1201 0C10.4436 0 0.000206411 10.2232 0.000206411 22.8342V35.4866C6.8893e-05 35.5029 0 35.5193 0 35.5357C0 35.5521 6.8893e-05 35.5685 0.000206411 35.5849V35.9093H0.0119714C0.208617 38.9684 2.80333 41.3899 5.97531 41.3899C6.65158 41.3899 7.3016 41.2798 7.90775 41.0769C9.16635 42.9341 11.3204 44.1584 13.7664 44.1584C14.9796 44.1584 16.1211 43.8572 17.1171 43.3268C18.5776 44.9651 20.7254 46 23.1199 46C25.5145 46 27.6623 44.965 29.1228 43.3268C30.1188 43.8571 31.2603 44.1584 32.4737 44.1584C34.9196 44.1584 37.0737 42.9341 38.3323 41.0769C38.9385 41.2798 39.5886 41.3899 40.2649 41.3899C43.4369 41.3899 46.0316 38.9684 46.2282 35.9093H46.24V35.5874C46.2401 35.5702 46.2402 35.553 46.2402 35.5357L46.2402 35.5177C46.2401 35.5104 46.2401 35.5031 46.2401 35.4958L46.24 35.4841V22.8342C46.24 10.2232 35.7965 0 23.1201 0Z" fill="#AE77F5"/>
<path d="M10.9765 14.3694C8.65305 14.3694 6.76953 16.2432 6.76953 18.5546V22.8544C6.76953 22.8765 6.7697 22.8986 6.77005 22.9207C6.7697 22.9428 6.76953 22.9649 6.76953 22.987V27.2868C6.76953 29.5982 8.65305 31.472 10.9765 31.472C13.2999 31.472 15.1835 29.5982 15.1835 27.2868V22.987C15.1835 22.9649 15.1833 22.9428 15.1829 22.9207C15.1833 22.8986 15.1835 22.8765 15.1835 22.8544V18.5546C15.1835 16.2432 13.2999 14.3694 10.9765 14.3694Z" fill="#CCA4FF"/>
<path d="M35.294 14.3694C32.9706 14.3694 31.087 16.2432 31.087 18.5546V22.8544C31.087 22.8765 31.0872 22.8986 31.0876 22.9207C31.0872 22.9428 31.087 22.9649 31.087 22.9871V27.2868C31.087 29.5982 32.9706 31.472 35.294 31.472C37.6174 31.472 39.501 29.5982 39.501 27.2868V22.9871C39.501 22.9649 39.5008 22.9428 39.5004 22.9207C39.5008 22.8986 39.501 22.8765 39.501 22.8544V18.5546C39.501 16.2432 37.6174 14.3694 35.294 14.3694Z" fill="#CCA4FF"/>
<path d="M6.76953 20.2951C6.76953 17.9837 8.65305 16.1099 10.9765 16.1099C13.2999 16.1099 15.1835 17.9837 15.1835 20.2951V24.5948C15.1835 26.9063 13.2999 28.7801 10.9765 28.7801C8.65305 28.7801 6.76953 26.9063 6.76953 24.5948V20.2951Z" fill="#282828"/>
<path d="M10.9764 19.9137C10.9764 19.1618 11.5891 18.5522 12.3449 18.5522C13.1007 18.5522 13.7135 19.1618 13.7135 19.9137V21.0834C13.7135 21.8353 13.1007 22.4449 12.3449 22.4449C11.5891 22.4449 10.9764 21.8353 10.9764 21.0834V19.9137Z" fill="white"/>
<path d="M31.0558 20.2951C31.0558 17.9837 32.9393 16.1099 35.2627 16.1099C37.5862 16.1099 39.4697 17.9837 39.4697 20.2951V24.5948C39.4697 26.9063 37.5862 28.7801 35.2627 28.7801C32.9393 28.7801 31.0558 26.9063 31.0558 24.5948V20.2951Z" fill="#282828"/>
<path d="M35.2627 19.9139C35.2627 19.162 35.8754 18.5525 36.6312 18.5525C37.387 18.5525 37.9997 19.162 37.9997 19.9139V21.0837C37.9997 21.8356 37.387 22.4451 36.6312 22.4451C35.8754 22.4451 35.2627 21.8356 35.2627 21.0837V19.9139Z" fill="white"/>
<path d="M28.0656 24.3211C26.7484 23.2183 24.8086 23.4295 23.5872 24.6496L23.1321 25.1188L22.6532 24.6496C21.4557 23.4295 19.4919 23.2183 18.1747 24.3211C16.6659 25.5881 16.5941 27.8406 17.9352 29.2014L22.5813 33.8941C22.8687 34.1991 23.3716 34.1991 23.659 33.8941L28.3051 29.2014C29.6463 27.8406 29.5744 25.5881 28.0656 24.3211Z" fill="#F1DC6D"/>
<path d="M21.77 25.7575C21.914 26.098 21.6013 26.4088 21.23 26.4088L19.1006 26.4088C18.7293 26.4088 18.4166 26.098 18.5606 25.7575C18.6478 25.5511 18.7758 25.3635 18.9371 25.2055C19.0984 25.0474 19.2899 24.9221 19.5006 24.8366C19.7113 24.751 19.9372 24.707 20.1653 24.707C20.3934 24.707 20.6193 24.751 20.83 24.8366C21.0407 24.9221 21.2322 25.0474 21.3935 25.2055C21.5548 25.3635 21.6828 25.5511 21.77 25.7575Z" fill="white"/>
<path d="M27.6798 25.7575C27.8237 26.098 27.511 26.4088 27.1397 26.4088L25.0103 26.4088C24.6391 26.4088 24.3263 26.098 24.4703 25.7575C24.5576 25.5511 24.6855 25.3635 24.8468 25.2055C25.0081 25.0474 25.1996 24.9221 25.4103 24.8366C25.6211 24.751 25.8469 24.707 26.075 24.707C26.3031 24.707 26.529 24.751 26.7397 24.8366C26.9505 24.9221 27.142 25.0474 27.3033 25.2055C27.4645 25.3635 27.5925 25.5511 27.6798 25.7575Z" fill="white"/>
</g>
<defs>
<clipPath id="clip0_1402_1858">
<rect width="46.2402" height="46" fill="white"/>
</clipPath>
</defs>
</svg>
