<svg width="82" height="82" viewBox="0 0 82 82" fill="none" xmlns="http://www.w3.org/2000/svg">
<path d="M1.5 40C1.5 30.5295 1.50319 23.5775 2.21886 18.2544C2.92873 12.9745 4.31475 9.5223 6.91852 6.91852C9.5223 4.31475 12.9745 2.92873 18.2544 2.21886C23.5775 1.50319 30.5295 1.5 40 1.5H42C51.4705 1.5 58.4225 1.50319 63.7456 2.21886C69.0255 2.92873 72.4777 4.31475 75.0815 6.91852C77.6853 9.5223 79.0713 12.9745 79.7811 18.2544C80.4968 23.5775 80.5 30.5295 80.5 40V42C80.5 51.4705 80.4968 58.4225 79.7811 63.7456C79.0713 69.0255 77.6853 72.4777 75.0815 75.0815C72.4777 77.6853 69.0255 79.0713 63.7456 79.7811C58.4225 80.4968 51.4705 80.5 42 80.5H40C30.5295 80.5 23.5775 80.4968 18.2544 79.7811C12.9745 79.0713 9.5223 77.6853 6.91852 75.0815C4.31475 72.4777 2.92873 69.0255 2.21886 63.7456C1.50319 58.4225 1.5 51.4705 1.5 42V40Z" fill="#FFF9D9"/>
<path opacity="0.2" d="M31.4351 55.8148C31.313 55.9389 31.1674 56.0373 31.0069 56.1046C30.8463 56.1718 30.674 56.2064 30.5 56.2064C30.3259 56.2064 30.1536 56.1718 29.9931 56.1046C29.8325 56.0373 29.6869 55.9389 29.5648 55.8148L26.1851 52.4352C26.0611 52.313 25.9626 52.1675 25.8954 52.0069C25.8282 51.8464 25.7936 51.6741 25.7936 51.5C25.7936 51.3259 25.8282 51.1536 25.8954 50.9931C25.9626 50.8325 26.0611 50.687 26.1851 50.5648L43.625 33.125L48.875 38.375L31.4351 55.8148Z" fill="#54298B"/>
<path d="M55.4375 41V48.875" stroke="#54298B" stroke-width="2.375" stroke-linecap="round" stroke-linejoin="round"/>
<path d="M51.5 44.9375H59.375" stroke="#54298B" stroke-width="2.375" stroke-linecap="round" stroke-linejoin="round"/>
<path d="M33.7812 26.5625V33.125" stroke="#54298B" stroke-width="2.375" stroke-linecap="round" stroke-linejoin="round"/>
<path d="M30.5 29.8438H37.0625" stroke="#54298B" stroke-width="2.375" stroke-linecap="round" stroke-linejoin="round"/>
<path d="M47.5625 50.1875V55.4375" stroke="#54298B" stroke-width="2.375" stroke-linecap="round" stroke-linejoin="round"/>
<path d="M44.9375 52.8125H50.1875" stroke="#54298B" stroke-width="2.375" stroke-linecap="round" stroke-linejoin="round"/>
<path d="M50.5855 26.1739L26.1887 50.5707C25.6761 51.0833 25.6761 51.9143 26.1887 52.4269L29.582 55.8201C30.0945 56.3327 30.9256 56.3327 31.4381 55.8201L55.835 31.4233C56.3475 30.9107 56.3475 30.0797 55.835 29.5671L52.4417 26.1739C51.9291 25.6613 51.0981 25.6613 50.5855 26.1739Z" stroke="#54298B" stroke-width="2.375" stroke-linecap="round" stroke-linejoin="round"/>
<path d="M43.625 33.125L48.875 38.375" stroke="#54298B" stroke-width="2.375" stroke-linecap="round" stroke-linejoin="round"/>
<path d="M1.5 40C1.5 30.5295 1.50319 23.5775 2.21886 18.2544C2.92873 12.9745 4.31475 9.5223 6.91852 6.91852C9.5223 4.31475 12.9745 2.92873 18.2544 2.21886C23.5775 1.50319 30.5295 1.5 40 1.5H42C51.4705 1.5 58.4225 1.50319 63.7456 2.21886C69.0255 2.92873 72.4777 4.31475 75.0815 6.91852C77.6853 9.5223 79.0713 12.9745 79.7811 18.2544C80.4968 23.5775 80.5 30.5295 80.5 40V42C80.5 51.4705 80.4968 58.4225 79.7811 63.7456C79.0713 69.0255 77.6853 72.4777 75.0815 75.0815C72.4777 77.6853 69.0255 79.0713 63.7456 79.7811C58.4225 80.4968 51.4705 80.5 42 80.5H40C30.5295 80.5 23.5775 80.4968 18.2544 79.7811C12.9745 79.0713 9.5223 77.6853 6.91852 75.0815C4.31475 72.4777 2.92873 69.0255 2.21886 63.7456C1.50319 58.4225 1.5 51.4705 1.5 42V40Z" stroke="#F5ECBC" stroke-width="3"/>
</svg>
