<svg width="31" height="37" viewBox="0 0 31 37" fill="none" xmlns="http://www.w3.org/2000/svg">
<path d="M27.7123 25.7983C28.0618 25.9383 28.3631 26.1769 28.5795 26.4851C28.7738 26.7741 28.9102 27.1233 28.9958 27.5326C29.042 27.7731 29.0975 27.9951 29.1576 28.2033C29.271 28.5932 29.4416 28.9642 29.6641 29.304C29.7728 29.4728 29.9184 29.6578 30.0988 29.8636C30.2538 30.0324 30.3925 30.2498 30.5151 30.5134C30.6281 30.7506 30.6888 31.0093 30.6931 31.2719C30.7021 31.5244 30.6264 31.7727 30.4781 31.9773C30.3272 32.1759 30.1434 32.3472 29.9346 32.4837C29.6571 32.6756 29.3681 32.8444 29.0674 32.9901C28.7668 33.1335 28.4662 33.2838 28.1656 33.4411C27.7161 33.6553 27.2866 33.9091 26.8821 34.1996C26.5214 34.4655 26.1583 34.8008 25.7976 35.2124C25.377 35.6836 24.8901 36.091 24.3523 36.4219C24.0776 36.5961 23.7793 36.7301 23.4666 36.8196C23.1659 36.9029 22.8653 36.9584 22.5647 36.9815C21.8663 36.9815 21.2882 36.8613 20.8303 36.6208C20.3724 36.3803 19.9747 35.9409 19.6371 35.3026C19.5399 35.1199 19.4451 35.0066 19.348 34.9581C19.198 34.8945 19.0401 34.8517 18.8786 34.8309L17.0494 34.6875C16.4481 34.6413 15.8353 34.6158 15.2086 34.6158C14.6881 34.6165 14.1685 34.6583 13.6546 34.7407C13.1251 34.8262 12.6001 34.928 12.0821 35.0483C11.9758 35.0714 11.8671 35.1639 11.7584 35.3188C11.6231 35.5068 11.4714 35.6825 11.3051 35.8438C11.0798 36.0583 10.8173 36.2299 10.5304 36.3502C10.1216 36.5099 9.68586 36.5892 9.247 36.5837C8.84925 36.5837 8.42144 36.5421 7.96356 36.4589C7.53521 36.3844 7.12098 36.244 6.73563 36.0426C6.04049 35.6871 5.29853 35.4317 4.53181 35.2841C3.808 35.1523 3.04488 35.0298 2.23781 34.9234C1.97032 34.8885 1.7048 34.8399 1.44231 34.7777C1.19984 34.7229 0.971444 34.6181 0.771687 34.4701C0.588378 34.3345 0.435545 34.162 0.323062 33.9637C0.199747 33.7111 0.137187 33.4331 0.140375 33.152C0.140375 32.7774 0.188937 32.4166 0.286062 32.0674C0.383187 31.7206 0.436375 31.3506 0.447937 30.9667C0.447937 30.7007 0.429437 30.4418 0.39475 30.1897C0.356506 29.9198 0.331808 29.6481 0.32075 29.3757C0.32075 28.7629 0.466437 28.3119 0.7555 28.0206C1.04456 27.7315 1.46544 27.5026 2.02044 27.3337C2.267 27.2591 2.4992 27.1434 2.70725 26.9915C2.8981 26.8475 3.0789 26.6907 3.24837 26.5221C3.42044 26.3492 3.57748 26.162 3.71781 25.9624C3.8635 25.7566 4.02538 25.5508 4.20575 25.3473C4.24174 25.301 4.26127 25.2441 4.26125 25.1854C4.26125 25.0397 4.25431 24.901 4.24275 24.7692L4.20575 24.3344C4.20575 23.5158 4.33294 22.6926 4.585 21.8601C4.83938 21.0276 5.17006 20.2182 5.57938 19.4204C5.98805 18.6273 6.44685 17.8611 6.953 17.1264C7.45712 16.3933 7.95894 15.7111 8.4515 15.0844C9.12055 14.2468 9.65142 13.3077 10.024 12.3025C10.3709 11.3405 10.5536 10.2906 10.5651 9.1575C10.5651 8.67881 10.542 8.20244 10.4934 7.733C10.4449 7.25277 10.421 6.77037 10.4218 6.28769C10.4218 5.32338 10.5304 4.45619 10.7455 3.68612C10.9629 2.91375 11.3005 2.25238 11.7584 1.69738C12.2163 1.14238 12.8129 0.728437 13.5459 0.450937C14.2836 0.173437 15.1624 0.023125 16.1845 0C17.4032 0 18.3721 0.2405 19.0959 0.723812C19.8174 1.20481 20.3724 1.83613 20.7563 2.62006C21.1425 3.40169 21.3899 4.27581 21.4963 5.24013C21.6073 6.20213 21.6674 7.178 21.679 8.16544V8.473C21.679 8.96788 21.6836 9.40725 21.6975 9.79113C21.719 10.5716 21.8967 11.3398 22.2201 12.0504C22.3889 12.4227 22.641 12.8274 22.9786 13.2599C23.5568 14.0207 24.1488 14.7861 24.75 15.5562C25.3513 16.3263 25.8993 17.1217 26.3919 17.9381C26.8868 18.759 27.2914 19.6146 27.6036 20.5049C27.9181 21.3976 28.08 22.3596 28.0916 23.3956C28.0947 24.2124 27.9666 25.022 27.7123 25.7983ZM12.5562 6.9745C12.7227 6.9745 12.8614 7.01612 12.9724 7.09937C13.0852 7.19014 13.1721 7.30897 13.2245 7.44394C13.2825 7.58283 13.3244 7.72792 13.3494 7.87637C13.3725 8.02206 13.3864 8.17237 13.3864 8.32962C13.3901 8.42895 13.3712 8.52782 13.3309 8.61869C13.2913 8.69546 13.2361 8.76318 13.169 8.81756L12.9516 8.99794C12.8741 9.06357 12.8022 9.1355 12.7366 9.213C12.6498 9.34801 12.5316 9.45991 12.392 9.53906C12.2488 9.62219 12.1099 9.7125 11.9758 9.80963C11.8477 9.90257 11.727 10.0054 11.615 10.1172C11.559 10.1776 11.5158 10.2486 11.488 10.3261C11.4602 10.4036 11.4483 10.4859 11.4531 10.5681C11.4531 10.6768 11.5063 10.767 11.615 10.8387C11.8847 11.0085 12.0985 11.2538 12.2301 11.544C12.3504 11.8215 12.4845 12.0921 12.6279 12.358C12.7713 12.6216 12.9586 12.8436 13.1875 13.0263C13.4164 13.2067 13.7726 13.2969 14.2513 13.2969H14.3623C14.8433 13.2738 15.3011 13.1466 15.7359 12.9176C16.1683 12.6887 16.6031 12.4482 17.0355 12.1938C17.1108 12.1515 17.1898 12.1159 17.2714 12.0874C17.3554 12.0575 17.4342 12.0146 17.5049 11.9602L18.8231 10.9312C18.846 10.8537 18.8645 10.7749 18.8786 10.6953C18.8926 10.6108 18.9049 10.526 18.9156 10.4409C18.9196 10.326 18.8872 10.2127 18.8231 10.1172C18.7639 10.0333 18.6913 9.95984 18.608 9.89981C18.5155 9.83677 18.4107 9.7942 18.3004 9.77494C18.1902 9.75281 18.082 9.72188 17.9767 9.68244C17.6884 9.62318 17.4129 9.51359 17.1627 9.35869C16.9143 9.20443 16.6469 9.08316 16.3672 8.99794C16.3209 8.98406 16.2839 8.94938 16.2585 8.88925C16.231 8.81804 16.207 8.74549 16.1868 8.67188C16.163 8.59564 16.1567 8.51502 16.1683 8.436C16.1815 8.37544 16.175 8.31225 16.1498 8.25562C16.1498 8.11225 16.1614 7.96194 16.1868 7.80469C16.2118 7.64549 16.2667 7.49247 16.3487 7.35375C16.4192 7.22527 16.518 7.11455 16.6378 7.03C16.7803 6.9468 16.9421 6.90217 17.1072 6.9005C17.4818 6.9005 17.7524 7.03925 17.9212 7.31675C18.09 7.59425 18.1802 7.89487 18.1918 8.21862C18.1947 8.36253 18.1638 8.50511 18.1016 8.63487C18.0398 8.75833 18.0081 8.89461 18.0091 9.03262C18.0091 9.12975 18.0414 9.1945 18.1016 9.2315C18.1744 9.27143 18.2547 9.29584 18.3374 9.30319C18.6149 9.30319 18.793 9.23844 18.8786 9.10662C18.9759 8.92302 19.0252 8.71778 19.0219 8.51C19.0219 8.2325 18.9988 7.92494 18.9526 7.58731C18.9068 7.26067 18.8084 6.9436 18.6612 6.64844C18.5264 6.37125 18.3359 6.12484 18.1016 5.92463C17.8506 5.72525 17.536 5.6234 17.2159 5.63787C16.5915 5.63787 16.1383 5.79281 15.8608 6.10731C15.5833 6.4195 15.4399 6.88894 15.4283 7.51562C15.4283 7.696 15.4399 7.87637 15.463 8.05675C15.4861 8.23944 15.5 8.41981 15.5 8.60019C15.5 8.66031 15.4931 8.69037 15.4815 8.69037C15.444 8.68222 15.4075 8.66981 15.3728 8.65338C15.3008 8.62416 15.2291 8.5941 15.1578 8.56319C15.0694 8.52586 14.9781 8.4957 14.8849 8.473C14.7312 8.43566 14.5716 8.42937 14.4154 8.4545C14.3196 8.46666 14.223 8.47284 14.1264 8.473C13.9576 8.473 13.872 8.44294 13.872 8.38281C13.872 8.20244 13.8628 7.9735 13.8373 7.696C13.8142 7.4185 13.7541 7.141 13.6569 6.8635C13.5762 6.61661 13.4542 6.38517 13.2962 6.179C13.1505 5.99862 12.9354 5.9015 12.6464 5.88994C12.4522 5.88546 12.2639 5.95679 12.1214 6.08881C11.973 6.22615 11.8453 6.38427 11.7422 6.55825C11.6314 6.74613 11.5635 6.95618 11.5433 7.17337C11.5239 7.36661 11.5 7.55938 11.4716 7.7515C11.4809 8.07054 11.5354 8.38665 11.6335 8.69037C11.6936 8.88231 11.7607 9.05112 11.8324 9.19681C11.9041 9.34019 11.9896 9.41188 12.0868 9.41188C12.1446 9.41188 12.2255 9.37025 12.3203 9.287C12.4174 9.20144 12.466 9.12513 12.466 9.05113C12.466 9.01413 12.4475 8.991 12.4105 8.97944C12.3755 8.9674 12.3388 8.96115 12.3018 8.96094C12.2186 8.96094 12.1446 8.91931 12.0844 8.83375C12.0225 8.7451 11.9741 8.64766 11.9411 8.54469C11.9031 8.43116 11.8669 8.31706 11.8324 8.20244C11.7604 7.89043 11.8056 7.56284 11.9596 7.28206C12.0683 7.08781 12.2671 6.98606 12.5562 6.9745ZM8.61569 35.1038C8.90475 35.1038 9.18919 35.0806 9.46669 35.0297C9.7414 34.9825 10.0049 34.8845 10.2437 34.7407C10.4727 34.6082 10.6601 34.4144 10.7848 34.1811C10.9164 33.9101 10.9904 33.6148 11.0022 33.3139C11.0022 33.0988 10.9654 32.8853 10.8935 32.6826C10.82 32.4758 10.7164 32.2809 10.5859 32.1044C10.4432 31.8782 10.2864 31.6612 10.1165 31.4546C9.94649 31.2473 9.78971 31.0295 9.64706 30.8025C9.42216 30.472 9.19861 30.1405 8.97644 29.8081C8.76138 29.4844 8.544 29.1421 8.32894 28.7791C8.13879 28.4714 7.95757 28.1583 7.7855 27.8402C7.60869 27.5154 7.4028 27.2074 7.17037 26.9198C7.0236 26.7365 6.85421 26.5726 6.66625 26.4319C6.47315 26.2868 6.23714 26.2103 5.99563 26.2145C5.74369 26.2108 5.49949 26.3015 5.31113 26.4689C5.09584 26.6565 4.8963 26.8615 4.7145 27.0817C4.50127 27.3316 4.27184 27.5672 4.02769 27.787C3.77331 28.0159 3.44956 28.1963 3.05181 28.3281C2.78265 28.4003 2.53505 28.5368 2.33031 28.7259C2.1615 28.8947 2.07594 29.1537 2.07594 29.5029C2.07594 29.7434 2.09444 29.9839 2.13144 30.2244C2.16613 30.4649 2.19156 30.7077 2.20312 30.9482C2.20312 31.2719 2.15688 31.5795 2.05744 31.8686C1.96416 32.1419 1.91574 32.4285 1.91406 32.7172C1.91406 33.0433 2.02969 33.2722 2.25631 33.4041C2.48756 33.5382 2.74425 33.6284 3.03331 33.6746C3.39638 33.7371 3.73863 33.7833 4.06469 33.8203C4.38844 33.8573 4.70756 33.9128 5.02206 33.9822C5.33425 34.0562 5.64644 34.1325 5.96094 34.2181C6.27313 34.3013 6.60612 34.4354 6.95531 34.6158C7.02469 34.6505 7.13569 34.6944 7.27906 34.7407L7.767 34.9026C7.94738 34.965 8.11619 35.0136 8.27344 35.0483C8.38535 35.0783 8.50002 35.0969 8.61569 35.1038ZM15.2294 32.9346C15.5671 32.9346 15.9278 32.8999 16.314 32.8259C17.1003 32.6786 17.8607 32.4168 18.571 32.0489C18.9017 31.8804 19.216 31.6814 19.5099 31.4546C19.5391 31.4217 19.564 31.3852 19.5839 31.3459C19.6069 31.2995 19.6247 31.2506 19.6371 31.2002V31.1818C19.7087 30.9181 19.7689 30.6268 19.8174 30.3146C19.8676 29.9965 19.91 29.6773 19.9446 29.3572C19.9796 29.0371 20.022 28.7179 20.0718 28.3998C20.1181 28.0876 20.162 27.7801 20.1967 27.4794C20.2453 27.1557 20.3054 26.8412 20.3771 26.5406C20.4511 26.2399 20.5459 25.9555 20.6661 25.6896C20.785 25.4277 20.9503 25.1895 21.1541 24.9866C21.3912 24.758 21.6589 24.5634 21.9496 24.4084V24.3714L21.9311 24.3182C21.9351 24.1956 21.9727 24.0764 22.0398 23.9737C22.1207 23.8409 22.2111 23.7142 22.3103 23.5944C22.4066 23.4728 22.5232 23.3688 22.6549 23.2869C22.7752 23.2147 22.9022 23.1543 23.0341 23.1065C22.9612 22.8159 22.8826 22.5268 22.7983 22.2393C22.7145 21.9532 22.642 21.6639 22.5809 21.3721C22.5217 21.0029 22.45 20.6357 22.3658 20.2714C22.2988 19.9887 22.2138 19.7107 22.1114 19.4389C22.0079 19.174 21.8678 18.9249 21.6952 18.6989C21.5171 18.4584 21.2928 18.167 21.0292 17.8317C20.9285 17.7191 20.8372 17.5985 20.7563 17.4709C20.6935 17.3276 20.6575 17.174 20.6499 17.0177C20.6211 16.8596 20.5849 16.7029 20.5413 16.5483C20.3788 15.9626 20.1921 15.384 19.9816 14.8139C19.8705 14.5095 19.7376 14.2135 19.5839 13.9282C19.461 13.6998 19.3283 13.4768 19.1861 13.2599C19.0659 13.0795 18.9387 12.9893 18.8069 12.9893C18.5178 12.9893 18.1733 13.1049 17.7755 13.3339C17.3801 13.5628 16.9569 13.8149 16.5129 14.0924C16.0666 14.3699 15.6341 14.6289 15.2109 14.8694C14.7901 15.1099 14.4108 15.2232 14.0732 15.2116C13.7129 15.2114 13.3629 15.0909 13.0788 14.8694C12.7726 14.636 12.4933 14.3692 12.2463 14.0739C11.9943 13.7732 11.7838 13.5142 11.615 13.2969C11.4462 13.0795 11.3213 12.9592 11.2358 12.9361C11.1409 12.9361 11.0854 13.0078 11.0739 13.1512C11.061 13.3135 11.0548 13.4763 11.0554 13.6391V13.9467C11.0554 14.0207 11.0438 14.0669 11.0184 14.0924C10.8866 14.3699 10.7409 14.6404 10.5859 14.9041C10.4287 15.17 10.2738 15.4406 10.1165 15.7181C9.805 16.2513 9.63097 16.8537 9.61006 17.4709C9.61006 17.6513 9.62163 17.8317 9.64706 18.0121C9.67019 18.1924 9.73031 18.3682 9.82744 18.537L9.79044 18.6064C9.6976 18.7353 9.59476 18.8567 9.48288 18.9694C9.36893 19.0855 9.26669 19.2126 9.17762 19.3487C8.73529 20.0021 8.41631 20.731 8.23644 21.4993C8.05606 22.2694 7.95894 23.0533 7.94738 23.8465C7.94738 24.0523 7.96125 24.2581 7.98438 24.4616C8.0075 24.6674 8.02137 24.8709 8.02137 25.0767C8.02067 25.1434 8.01448 25.21 8.00288 25.2756C7.99126 25.3413 7.98507 25.4078 7.98438 25.4745C8.24142 25.5035 8.48873 25.5896 8.70819 25.7266C8.98569 25.8838 9.28631 26.0827 9.61006 26.3232C9.93381 26.5637 10.2437 26.8412 10.5328 27.1557C10.8218 27.4679 11.097 27.7731 11.3629 28.0761C11.6289 28.3767 11.8208 28.6773 11.9411 28.9779C12.0613 29.2786 12.1399 29.526 12.1746 29.7179C12.1808 29.8578 12.1584 29.9974 12.1087 30.1282C12.059 30.259 11.9831 30.3783 11.8856 30.4788C11.6782 30.681 11.433 30.8405 11.1641 30.9482C11.3699 31.3089 11.6219 31.6165 11.9226 31.8686C12.2232 32.1229 12.5493 32.3264 12.8984 32.4837C13.2476 32.6409 13.6269 32.7542 14.0362 32.8259C14.4455 32.8999 14.8456 32.9346 15.2294 32.9346ZM22.4745 35.5015C22.7266 35.5015 22.974 35.4645 23.2145 35.3928C23.5789 35.2883 23.9258 35.1301 24.2436 34.9234C24.5581 34.7176 24.8448 34.4655 25.1108 34.1626C25.739 33.4377 26.5075 32.8478 27.3701 32.4282L27.9667 32.1576C28.1714 32.0684 28.3699 31.9656 28.561 31.8501C28.699 31.7626 28.827 31.6603 28.9426 31.5448C29.0008 31.4885 29.0468 31.4209 29.0778 31.3461C29.1088 31.2714 29.1242 31.191 29.1229 31.1101C29.1231 31.017 29.1042 30.925 29.0674 30.8395C29.0243 30.7433 28.97 30.6524 28.9056 30.5689C28.7407 30.3395 28.5842 30.1042 28.4361 29.8636C28.3022 29.6448 28.187 29.415 28.0916 29.1768L27.8025 28.4553C27.6982 28.1905 27.6132 27.9184 27.5481 27.6413C27.523 27.5557 27.4805 27.4762 27.4233 27.4078C27.307 27.234 27.1483 27.0928 26.9621 26.9977C26.7759 26.9025 26.5684 26.8566 26.3595 26.8643C26.1438 26.8635 25.9317 26.9193 25.7444 27.0262L25.1293 27.3708C24.9151 27.4895 24.6985 27.6036 24.4794 27.713C24.2664 27.8202 24.0311 27.8757 23.7926 27.8749C23.5794 27.8842 23.3692 27.8215 23.196 27.6968C23.0298 27.5648 22.8941 27.3983 22.7983 27.2089C22.6954 27.016 22.6051 26.8167 22.5277 26.6123L22.3103 26.0156C22.2161 26.1703 22.1078 26.3158 21.9866 26.4504C21.8628 26.5882 21.7648 26.7472 21.6975 26.9198C21.5403 27.2806 21.4431 27.6829 21.4084 28.1292C21.3483 28.8276 21.2697 29.5075 21.1726 30.1712C21.0736 30.8479 20.911 31.5138 20.6869 32.1599C20.623 32.3665 20.5743 32.5775 20.5413 32.7913C20.5053 33.0126 20.4806 33.2357 20.4673 33.4596C20.4673 34.0492 20.6499 34.5372 21.0107 34.9234C21.3714 35.3073 21.8594 35.5015 22.4745 35.5015Z" fill="#54298B"/>
</svg>
