<svg width="174" height="46" viewBox="0 0 174 46" fill="none" xmlns="http://www.w3.org/2000/svg">
<path d="M71.2196 32.0061C71.5822 32.0061 71.9059 32.1857 72.1907 32.5448C72.5015 32.8784 72.6568 33.3273 72.6568 33.8918C72.6568 34.5845 72.2684 35.1745 71.4915 35.662C70.7406 36.1238 69.886 36.3547 68.9279 36.3547C67.3223 36.3547 65.9628 36.0212 64.8493 35.3541C63.7617 34.6614 63.2179 33.2119 63.2179 31.0055V20.384H61.4311C60.8096 20.384 60.2917 20.1787 59.8774 19.7683C59.463 19.3578 59.2559 18.8446 59.2559 18.2289C59.2559 17.6388 59.463 17.1514 59.8774 16.7665C60.2917 16.356 60.8096 16.1508 61.4311 16.1508H63.2179V13.6878C63.2179 13.0208 63.438 12.4692 63.8782 12.033C64.3443 11.5712 64.9141 11.3403 65.5873 11.3403C66.2347 11.3403 66.7785 11.5712 67.2188 12.033C67.659 12.4692 67.8791 13.0208 67.8791 13.6878V16.1508H70.637C71.2585 16.1508 71.7764 16.356 72.1907 16.7665C72.6051 17.177 72.8122 17.6901 72.8122 18.3059C72.8122 18.896 72.6051 19.3962 72.1907 19.8067C71.7764 20.1916 71.2585 20.384 70.637 20.384H67.8791V30.8131C67.8791 31.3518 68.0215 31.7495 68.3064 32.0061C68.5912 32.237 68.9797 32.3524 69.4717 32.3524C69.6788 32.3524 69.9637 32.3011 70.3262 32.1985C70.637 32.0702 70.9348 32.0061 71.2196 32.0061Z" fill="#54298B"/>
<path d="M91.3475 15.766C92.0208 15.766 92.5776 15.9969 93.0178 16.4587C93.458 16.8948 93.6781 17.4464 93.6781 18.1135V27.8883C93.6781 30.6591 92.9012 32.827 91.3475 34.392C89.8197 35.957 87.6315 36.7396 84.783 36.7396C81.9345 36.7396 79.7463 35.957 78.2184 34.392C76.6906 32.827 75.9267 30.6591 75.9267 27.8883V18.1135C75.9267 17.4464 76.1468 16.8948 76.587 16.4587C77.0272 15.9969 77.584 15.766 78.2573 15.766C78.9306 15.766 79.4873 15.9969 79.9275 16.4587C80.3678 16.8948 80.5879 17.4464 80.5879 18.1135V27.8883C80.5879 29.4533 80.9375 30.6206 81.6367 31.3903C82.3358 32.1343 83.3846 32.5063 84.783 32.5063C86.2072 32.5063 87.269 32.1343 87.9681 31.3903C88.6673 30.6206 89.0169 29.4533 89.0169 27.8883V18.1135C89.0169 17.4464 89.237 16.8948 89.6772 16.4587C90.1175 15.9969 90.6742 15.766 91.3475 15.766Z" fill="#54298B"/>
<path d="M121.526 15.3811C124.089 15.3811 125.863 16.1636 126.847 17.7286C127.831 19.268 128.323 21.4102 128.323 24.1554V34.0072C128.323 34.6743 128.103 35.2387 127.663 35.7005C127.223 36.1366 126.666 36.3547 125.993 36.3547C125.319 36.3547 124.762 36.1366 124.322 35.7005C123.882 35.2387 123.662 34.6743 123.662 34.0072V24.1554C123.662 22.7443 123.377 21.6411 122.807 20.8458C122.264 20.0248 121.292 19.6143 119.894 19.6143C118.444 19.6143 117.305 20.0505 116.476 20.9228C115.673 21.7694 115.272 22.8469 115.272 24.1554V34.0072C115.272 34.6743 115.052 35.2387 114.611 35.7005C114.171 36.1366 113.614 36.3547 112.941 36.3547C112.268 36.3547 111.711 36.1366 111.271 35.7005C110.831 35.2387 110.611 34.6743 110.611 34.0072V24.1554C110.611 22.7443 110.326 21.6411 109.756 20.8458C109.212 20.0248 108.241 19.6143 106.843 19.6143C105.393 19.6143 104.253 20.0505 103.424 20.9228C102.622 21.7694 102.22 22.8469 102.22 24.1554V34.0072C102.22 34.6743 102 35.2387 101.56 35.7005C101.12 36.1366 100.563 36.3547 99.8897 36.3547C99.2164 36.3547 98.6597 36.1366 98.2195 35.7005C97.7792 35.2387 97.5591 34.6743 97.5591 34.0072V18.1135C97.5591 17.4464 97.7792 16.8948 98.2195 16.4587C98.6597 15.9969 99.2164 15.766 99.8897 15.766C100.563 15.766 101.12 15.9969 101.56 16.4587C102 16.8948 102.22 17.4464 102.22 18.1135V18.7292C102.92 17.8056 103.8 17.0231 104.862 16.3817C105.949 15.7146 107.153 15.3811 108.474 15.3811C111.737 15.3811 113.822 16.7922 114.728 19.6143C115.324 18.5368 116.217 17.5619 117.408 16.6896C118.625 15.8173 119.998 15.3811 121.526 15.3811Z" fill="#54298B"/>
<path d="M142.574 15.3811C144.361 15.3811 145.979 15.8429 147.429 16.7665C148.879 17.6645 150.019 18.9216 150.847 20.5379C151.702 22.1542 152.129 23.9886 152.129 26.0411C152.129 28.0936 151.715 29.9408 150.886 31.5827C150.058 33.1991 148.918 34.469 147.468 35.3926C146.044 36.2906 144.464 36.7396 142.729 36.7396C141.486 36.7396 140.308 36.4958 139.194 36.0084C138.107 35.4952 137.2 34.8795 136.475 34.1611V41.7039C136.475 42.371 136.255 42.9226 135.815 43.3587C135.375 43.8205 134.818 44.0514 134.145 44.0514C133.471 44.0514 132.915 43.8334 132.475 43.3972C132.034 42.9611 131.814 42.3967 131.814 41.7039V18.1135C131.814 17.4464 132.034 16.8948 132.475 16.4587C132.915 15.9969 133.471 15.766 134.145 15.766C134.818 15.766 135.375 15.9969 135.815 16.4587C136.255 16.8948 136.475 17.4464 136.475 18.1135V18.2674C137.097 17.4977 137.964 16.8307 139.078 16.2662C140.191 15.6762 141.357 15.3811 142.574 15.3811ZM141.991 32.5063C143.648 32.5063 145.008 31.8906 146.07 30.6591C147.131 29.4277 147.662 27.8883 147.662 26.0411C147.662 24.1939 147.131 22.6674 146.07 21.4615C145.034 20.2301 143.674 19.6143 141.991 19.6143C140.308 19.6143 138.935 20.2301 137.874 21.4615C136.812 22.6674 136.281 24.1939 136.281 26.0411C136.281 27.8883 136.812 29.4277 137.874 30.6591C138.935 31.8906 140.308 32.5063 141.991 32.5063Z" fill="#54298B"/>
<path d="M171.669 15.3811C172.343 15.3811 172.899 15.5992 173.34 16.0353C173.78 16.4715 174 17.0359 174 17.7286V34.0072C174 34.6743 173.78 35.2387 173.34 35.7005C172.899 36.1366 172.343 36.3547 171.669 36.3547C170.996 36.3547 170.439 36.1366 169.999 35.7005C169.585 35.2643 169.365 34.7127 169.339 34.0457C168.691 34.7897 167.811 35.4311 166.697 35.9699C165.61 36.483 164.457 36.7396 163.24 36.7396C161.454 36.7396 159.835 36.2906 158.385 35.3926C156.935 34.469 155.782 33.1991 154.928 31.5827C154.099 29.9664 153.685 28.132 153.685 26.0796C153.685 24.0271 154.099 22.1927 154.928 20.5764C155.756 18.9344 156.883 17.6645 158.307 16.7665C159.757 15.8429 161.35 15.3811 163.085 15.3811C164.328 15.3811 165.493 15.612 166.581 16.0738C167.668 16.51 168.588 17.0744 169.339 17.7671V17.7286C169.339 17.0616 169.559 16.51 169.999 16.0738C170.439 15.612 170.996 15.3811 171.669 15.3811ZM163.823 32.5063C165.506 32.5063 166.879 31.9034 167.94 30.6976C169.002 29.4661 169.533 27.9268 169.533 26.0796C169.533 24.2324 169.002 22.693 167.94 21.4615C166.879 20.2301 165.506 19.6143 163.823 19.6143C162.166 19.6143 160.806 20.2301 159.744 21.4615C158.683 22.693 158.152 24.2324 158.152 26.0796C158.152 27.9268 158.67 29.4661 159.706 30.6976C160.767 31.9034 162.14 32.5063 163.823 32.5063Z" fill="#54298B"/>
<g clip-path="url(#clip0_1207_7252)">
<path d="M23.1201 0C10.4436 0 0.000206411 10.2232 0.000206411 22.8342V35.4866C6.8893e-05 35.5029 0 35.5193 0 35.5357C0 35.5521 6.8893e-05 35.5685 0.000206411 35.5849V35.9093H0.0119714C0.208617 38.9684 2.80333 41.3899 5.97531 41.3899C6.65158 41.3899 7.3016 41.2798 7.90775 41.0769C9.16635 42.9341 11.3204 44.1584 13.7664 44.1584C14.9796 44.1584 16.1211 43.8572 17.1171 43.3268C18.5776 44.9651 20.7254 46 23.1199 46C25.5145 46 27.6623 44.965 29.1228 43.3268C30.1188 43.8571 31.2603 44.1584 32.4737 44.1584C34.9196 44.1584 37.0737 42.9341 38.3323 41.0769C38.9385 41.2798 39.5886 41.3899 40.2649 41.3899C43.4369 41.3899 46.0316 38.9684 46.2282 35.9093H46.24V35.5874C46.2401 35.5702 46.2402 35.553 46.2402 35.5357L46.2402 35.5177C46.2401 35.5104 46.2401 35.5031 46.2401 35.4958L46.24 35.4841V22.8342C46.24 10.2232 35.7965 0 23.1201 0Z" fill="#AE77F5"/>
<path d="M10.9765 14.3694C8.65305 14.3694 6.76953 16.2432 6.76953 18.5546V22.8544C6.76953 22.8765 6.7697 22.8986 6.77005 22.9207C6.7697 22.9428 6.76953 22.9649 6.76953 22.987V27.2868C6.76953 29.5982 8.65305 31.472 10.9765 31.472C13.2999 31.472 15.1835 29.5982 15.1835 27.2868V22.987C15.1835 22.9649 15.1833 22.9428 15.1829 22.9207C15.1833 22.8986 15.1835 22.8765 15.1835 22.8544V18.5546C15.1835 16.2432 13.2999 14.3694 10.9765 14.3694Z" fill="#CCA4FF"/>
<path d="M35.294 14.3694C32.9706 14.3694 31.087 16.2432 31.087 18.5546V22.8544C31.087 22.8765 31.0872 22.8986 31.0876 22.9207C31.0872 22.9428 31.087 22.9649 31.087 22.9871V27.2868C31.087 29.5982 32.9706 31.472 35.294 31.472C37.6174 31.472 39.501 29.5982 39.501 27.2868V22.9871C39.501 22.9649 39.5008 22.9428 39.5004 22.9207C39.5008 22.8986 39.501 22.8765 39.501 22.8544V18.5546C39.501 16.2432 37.6174 14.3694 35.294 14.3694Z" fill="#CCA4FF"/>
<path d="M6.76953 20.2951C6.76953 17.9837 8.65305 16.1099 10.9765 16.1099C13.2999 16.1099 15.1835 17.9837 15.1835 20.2951V24.5948C15.1835 26.9063 13.2999 28.7801 10.9765 28.7801C8.65305 28.7801 6.76953 26.9063 6.76953 24.5948V20.2951Z" fill="#282828"/>
<path d="M10.9764 19.9137C10.9764 19.1618 11.5891 18.5522 12.3449 18.5522C13.1007 18.5522 13.7135 19.1618 13.7135 19.9137V21.0834C13.7135 21.8353 13.1007 22.4449 12.3449 22.4449C11.5891 22.4449 10.9764 21.8353 10.9764 21.0834V19.9137Z" fill="white"/>
<path d="M31.0558 20.2951C31.0558 17.9837 32.9393 16.1099 35.2627 16.1099C37.5862 16.1099 39.4697 17.9837 39.4697 20.2951V24.5948C39.4697 26.9063 37.5862 28.7801 35.2627 28.7801C32.9393 28.7801 31.0558 26.9063 31.0558 24.5948V20.2951Z" fill="#282828"/>
<path d="M35.2627 19.9139C35.2627 19.162 35.8754 18.5525 36.6312 18.5525C37.387 18.5525 37.9997 19.162 37.9997 19.9139V21.0837C37.9997 21.8356 37.387 22.4451 36.6312 22.4451C35.8754 22.4451 35.2627 21.8356 35.2627 21.0837V19.9139Z" fill="white"/>
<path d="M28.0656 24.3211C26.7484 23.2183 24.8086 23.4295 23.5872 24.6496L23.1321 25.1188L22.6532 24.6496C21.4557 23.4295 19.4919 23.2183 18.1747 24.3211C16.6659 25.5881 16.5941 27.8406 17.9352 29.2014L22.5813 33.8941C22.8687 34.1991 23.3716 34.1991 23.659 33.8941L28.3051 29.2014C29.6463 27.8406 29.5744 25.5881 28.0656 24.3211Z" fill="#F1DC6D"/>
<path d="M21.77 25.7575C21.914 26.098 21.6013 26.4088 21.23 26.4088L19.1006 26.4088C18.7293 26.4088 18.4166 26.098 18.5606 25.7575C18.6478 25.5511 18.7758 25.3635 18.9371 25.2055C19.0984 25.0474 19.2899 24.9221 19.5006 24.8366C19.7113 24.751 19.9372 24.707 20.1653 24.707C20.3934 24.707 20.6193 24.751 20.83 24.8366C21.0407 24.9221 21.2322 25.0474 21.3935 25.2055C21.5548 25.3635 21.6828 25.5511 21.77 25.7575Z" fill="white"/>
<path d="M27.6798 25.7575C27.8237 26.098 27.511 26.4088 27.1397 26.4088L25.0103 26.4088C24.6391 26.4088 24.3263 26.098 24.4703 25.7575C24.5576 25.5511 24.6855 25.3635 24.8468 25.2055C25.0081 25.0474 25.1996 24.9221 25.4103 24.8366C25.6211 24.751 25.8469 24.707 26.075 24.707C26.3031 24.707 26.529 24.751 26.7397 24.8366C26.9505 24.9221 27.142 25.0474 27.3033 25.2055C27.4645 25.3635 27.5925 25.5511 27.6798 25.7575Z" fill="white"/>
</g>
<defs>
<clipPath id="clip0_1207_7252">
<rect width="46.2402" height="46" fill="white"/>
</clipPath>
</defs>
</svg>
