<svg width="358" height="324" viewBox="0 0 358 324" fill="none" xmlns="http://www.w3.org/2000/svg">
<circle cx="182" cy="146" r="144.5" fill="#EEE1FF" stroke="#54298B" stroke-width="3"/>
<path d="M87.7787 85.0784C86.5186 77.1815 92.6195 70.03 100.616 70.03H231.51C237.899 70.03 243.341 74.6725 244.347 80.9817L266.808 221.751C268.068 229.648 261.967 236.799 253.971 236.799H123.077C116.688 236.799 111.246 232.157 110.24 225.848L87.7787 85.0784Z" fill="white" stroke="#54298B" stroke-width="3"/>
<path d="M93.3741 78.0225C92.1141 70.1256 98.2149 62.9741 106.212 62.9741H237.104C243.493 62.9741 248.935 67.6166 249.942 73.9258L272.403 214.694C273.663 222.591 267.562 229.742 259.565 229.742H128.673C122.284 229.742 116.842 225.1 115.835 218.791L93.3741 78.0225Z" fill="white" stroke="#54298B" stroke-width="3"/>
<path d="M197.354 106.657H233.18" stroke="#54298B" stroke-width="3"/>
<path d="M211.628 181.892H247.454" stroke="#54298B" stroke-width="3"/>
<path d="M201.116 126.554H236.942" stroke="#54298B" stroke-width="3"/>
<path d="M215.389 201.789H251.215" stroke="#54298B" stroke-width="3"/>
<path d="M193.095 87.6816H229.418" stroke="#54298B" stroke-width="3"/>
<path d="M207.368 162.916H243.692" stroke="#54298B" stroke-width="3"/>
<path d="M132.088 172.187C130.923 164.334 137.008 157.28 144.947 157.28H172.929C179.372 157.28 184.843 162 185.788 168.374L189.231 191.598C190.395 199.451 184.31 206.504 176.371 206.504H148.39C141.946 206.504 136.475 201.785 135.53 195.411L132.088 172.187Z" fill="white" stroke="#54298B" stroke-width="3"/>
<path d="M146.139 181.183L157.632 193.213L176.088 169.536" stroke="#54298B" stroke-width="3" stroke-linejoin="round"/>
<path d="M118.076 96.8951C116.912 89.0421 122.997 81.9888 130.936 81.9888H158.917C165.361 81.9888 170.832 86.7087 171.777 93.0824L175.22 116.307C176.384 124.16 170.299 131.213 162.36 131.213H134.379C127.935 131.213 122.464 126.493 121.519 120.119L118.076 96.8951Z" fill="#54298B" stroke="#54298B" stroke-width="3"/>
<path d="M163.079 119.388L130.215 93.8145" stroke="white" stroke-width="3" stroke-linejoin="round"/>
<path d="M134.21 120.36L159.61 92.729" stroke="white" stroke-width="3" stroke-linejoin="round"/>
<path d="M146.279 66.6379C143.859 61.653 147.49 55.854 153.031 55.854H190.547C193.421 55.854 196.043 57.4956 197.298 60.0813C199.719 65.0662 196.088 70.8652 190.547 70.8652H153.031C150.157 70.8652 147.535 69.2236 146.279 66.6379Z" fill="#AE77F5" stroke="#54298B" stroke-width="3"/>
<path d="M236.516 205.711C235.33 203.658 236.034 201.033 238.087 199.847L272.501 179.978C274.555 178.793 277.18 179.496 278.365 181.549L298.073 215.684L256.223 239.846L236.516 205.711Z" fill="#F9FAFB" stroke="#54298B" stroke-width="3"/>
<path d="M252.139 252.1C249.769 247.993 251.176 242.742 255.282 240.371L298.999 215.132C303.105 212.761 308.356 214.168 310.727 218.274L347.831 282.54C350.202 286.646 348.795 291.897 344.688 294.268L300.972 319.508C296.865 321.879 291.614 320.472 289.243 316.366L252.139 252.1Z" fill="#F1DC6D" stroke="#54298B" stroke-width="3"/>
<rect x="250.807" y="213.333" width="9.63134" height="6.70722" transform="rotate(-30 250.807 213.333)" fill="#54298B"/>
<rect x="269.48" y="202.553" width="9.63134" height="6.70722" transform="rotate(-30 269.48 202.553)" fill="#54298B"/>
<rect x="242.5" y="87.5" width="113.395" height="36.1363" rx="14.6186" fill="#F1DC6D" stroke="#54298B" stroke-width="3"/>
<path d="M278.811 100.124L278.811 111.924" stroke="#54298B" stroke-width="3" stroke-linecap="round"/>
<path d="M284.71 106.021L272.91 106.021" stroke="#54298B" stroke-width="3" stroke-linecap="round"/>
<path d="M282.981 101.853L274.637 110.196" stroke="#54298B" stroke-width="3" stroke-linecap="round"/>
<path d="M282.981 110.198L274.637 101.854" stroke="#54298B" stroke-width="3" stroke-linecap="round"/>
<path d="M299.198 100.124L299.198 111.924" stroke="#54298B" stroke-width="3" stroke-linecap="round"/>
<path d="M305.097 106.021L293.297 106.021" stroke="#54298B" stroke-width="3" stroke-linecap="round"/>
<path d="M303.369 101.853L295.025 110.196" stroke="#54298B" stroke-width="3" stroke-linecap="round"/>
<path d="M303.369 110.198L295.025 101.854" stroke="#54298B" stroke-width="3" stroke-linecap="round"/>
<path d="M319.583 100.124L319.583 111.924" stroke="#54298B" stroke-width="3" stroke-linecap="round"/>
<path d="M325.484 106.021L313.684 106.021" stroke="#54298B" stroke-width="3" stroke-linecap="round"/>
<path d="M323.756 101.853L315.412 110.196" stroke="#54298B" stroke-width="3" stroke-linecap="round"/>
<path d="M323.756 110.198L315.412 101.854" stroke="#54298B" stroke-width="3" stroke-linecap="round"/>
<rect x="103.668" y="27" width="72.3799" height="101.342" rx="16.32" transform="rotate(90 103.668 27)" fill="#F9FAFB" stroke="#54298B" stroke-width="3"/>
<path d="M104 36.3567L104 84.1199C104 93.1331 96.6933 100.44 87.68 100.44L18.32 100.44C9.3067 100.44 1.99999 93.1332 1.99999 84.1199L1.99999 36.3569L53 72.5207L104 36.3567Z" fill="#F1DC6D"/>
<path d="M3.88159 36.3567L40.721 63.1851M102.119 36.3567L65.2805 63.1851M65.2805 63.1851L53.0008 72.1279L40.721 63.1851M65.2805 63.1851L102.119 90.0135M40.721 63.1851L3.88159 90.0138" stroke="#54298B" stroke-width="3"/>
<rect x="103.668" y="27" width="72.3799" height="101.342" rx="16.32" transform="rotate(90 103.668 27)" stroke="#54298B" stroke-width="3"/>
<path fill-rule="evenodd" clip-rule="evenodd" d="M127.881 241.994C127.881 241.995 127.882 241.994 127.882 241.993C129.196 237.105 129.026 231.936 127.392 227.139C126.847 225.538 126.147 224.003 125.307 222.553C125.304 222.548 125.306 222.542 125.31 222.539C125.315 222.536 125.317 222.53 125.314 222.525C122.765 218.144 118.972 214.61 114.414 212.372C113.16 211.756 111.864 211.246 110.539 210.844C108.664 210.271 106.719 209.912 104.742 209.779C99.6757 209.439 94.6245 210.602 90.2267 213.122C90.2215 213.125 90.2197 213.131 90.2227 213.137C90.2257 213.142 90.2239 213.149 90.2187 213.152C88.7657 213.987 87.3919 214.967 86.1194 216.081C82.3059 219.418 79.5733 223.81 78.2673 228.7C78.2671 228.701 78.2676 228.702 78.2684 228.702C78.2693 228.702 78.2698 228.703 78.2696 228.704L70.7641 256.715C70.028 259.462 71.6584 262.286 74.4057 263.022C77.1531 263.758 79.977 262.128 80.7132 259.38L88.2184 231.371C88.22 231.364 88.2263 231.361 88.2324 231.362C88.2385 231.364 88.2448 231.36 88.2464 231.354C89.0287 228.433 90.6621 225.81 92.9406 223.816C95.222 221.819 98.0476 220.543 101.06 220.148C103.244 219.862 105.454 220.048 107.544 220.682C109.297 221.218 110.95 222.065 112.419 223.191C114.831 225.039 116.639 227.557 117.617 230.427C118.593 233.293 118.696 236.382 117.913 239.302C117.911 239.308 117.915 239.315 117.921 239.316C117.927 239.318 117.931 239.324 117.929 239.331L110.424 267.34C109.688 270.087 111.319 272.911 114.066 273.647C116.813 274.384 119.637 272.753 120.373 270.006L127.879 241.995C127.879 241.995 127.88 241.994 127.881 241.994Z" fill="#AE77F5"/>
<path d="M127.392 227.139L125.972 227.622L127.392 227.139ZM114.414 212.372L115.075 211.025L114.414 212.372ZM110.539 210.844L110.102 212.278L110.103 212.279L110.539 210.844ZM104.742 209.779L104.843 208.283L104.742 209.779ZM86.1194 216.081L87.1073 217.209L86.1194 216.081ZM92.9406 223.816L91.9527 222.687L91.9527 222.687L92.9406 223.816ZM101.06 220.148L100.865 218.661L101.06 220.148ZM107.544 220.682L107.982 219.248L107.98 219.247L107.544 220.682ZM112.419 223.191L113.332 222L112.419 223.191ZM117.617 230.427L119.037 229.943L119.037 229.943L117.617 230.427ZM117.929 239.331L116.48 238.942L117.929 239.331ZM117.913 239.302L119.362 239.691L117.913 239.302ZM88.2464 231.354L86.7975 230.966L88.2464 231.354ZM78.2696 228.704L76.8207 228.316L78.2696 228.704ZM78.2673 228.7L79.7165 229.087L78.2673 228.7ZM78.2684 228.702L77.8811 230.151L78.2684 228.702ZM90.2187 213.152L90.9665 214.452L90.2187 213.152ZM88.2184 231.371L89.6673 231.759L88.2184 231.371ZM88.2324 231.362L88.6194 229.913L88.2324 231.362ZM125.314 222.525L126.611 221.771L125.314 222.525ZM90.2267 213.122L89.4811 211.82L90.2267 213.122ZM127.879 241.995L129.328 242.384L127.879 241.995ZM125.307 222.553L126.605 221.801L125.307 222.553ZM125.31 222.539L124.562 221.239L125.31 222.539ZM120.373 270.006L118.924 269.618L120.373 270.006ZM127.882 241.993L126.434 241.604L127.882 241.993ZM125.972 227.622C127.51 232.138 127.67 237.004 126.434 241.604L129.331 242.383C130.722 237.207 130.541 231.734 128.812 226.655L125.972 227.622ZM124.009 223.305C124.8 224.67 125.459 226.115 125.972 227.622L128.812 226.655C128.235 224.961 127.494 223.336 126.605 221.801L124.009 223.305ZM126.611 221.771C123.913 217.133 119.899 213.394 115.075 211.025L113.753 213.718C118.046 215.827 121.618 219.154 124.018 223.279L126.611 221.771ZM115.075 211.025C113.749 210.374 112.377 209.834 110.975 209.408L110.103 212.279C111.351 212.658 112.572 213.138 113.753 213.718L115.075 211.025ZM104.642 211.276C106.504 211.401 108.335 211.739 110.102 212.278L110.977 209.409C108.992 208.803 106.935 208.423 104.843 208.283L104.642 211.276ZM90.9724 214.423C95.1131 212.051 99.8697 210.955 104.642 211.276L104.843 208.283C99.4817 207.922 94.136 209.153 89.4811 211.82L90.9724 214.423ZM89.4708 211.851C87.9329 212.736 86.4786 213.773 85.1315 214.952L87.1073 217.209C88.3052 216.161 89.5986 215.239 90.9665 214.452L89.4708 211.851ZM85.1315 214.952C81.0943 218.485 78.201 223.135 76.8181 228.313L79.7165 229.087C80.9457 224.485 83.5174 220.351 87.1073 217.209L85.1315 214.952ZM76.8207 228.316L69.3152 256.326L72.213 257.103L79.7185 229.092L76.8207 228.316ZM82.1621 259.769L89.6673 231.759L86.7695 230.982L79.2643 258.992L82.1621 259.769ZM89.6954 231.742C90.4007 229.109 91.8734 226.744 93.9285 224.945L91.9527 222.687C89.4508 224.877 87.6568 227.758 86.7975 230.966L89.6954 231.742ZM93.9285 224.945C95.9862 223.144 98.5358 221.992 101.255 221.635L100.865 218.661C97.5594 219.094 94.4577 220.495 91.9527 222.687L93.9285 224.945ZM101.255 221.635C103.226 221.377 105.221 221.545 107.108 222.118L107.98 219.247C105.686 218.551 103.261 218.347 100.865 218.661L101.255 221.635ZM113.332 222C111.719 220.764 109.906 219.836 107.982 219.248L107.106 222.117C108.688 222.6 110.18 223.365 111.507 224.381L113.332 222ZM119.037 229.943C117.964 226.792 115.978 224.028 113.332 222L111.507 224.381C113.683 226.05 115.315 228.322 116.197 230.911L119.037 229.943ZM119.362 239.691C120.222 236.482 120.109 233.091 119.037 229.943L116.197 230.911C117.077 233.496 117.17 236.281 116.464 238.914L119.362 239.691ZM111.873 267.728L119.378 239.719L116.48 238.942L108.975 266.952L111.873 267.728ZM126.43 241.607L118.924 269.618L121.822 270.394L129.328 242.384L126.43 241.607ZM108.975 266.952C108.025 270.499 110.13 274.146 113.678 275.096L114.454 272.198C112.507 271.677 111.351 269.675 111.873 267.728L108.975 266.952ZM117.532 240.765C116.738 240.552 116.268 239.736 116.48 238.942L119.378 239.719C119.594 238.913 119.117 238.085 118.311 237.868L117.532 240.765ZM116.464 238.914C116.249 239.718 116.724 240.548 117.532 240.765L118.311 237.868C119.106 238.082 119.574 238.899 119.362 239.691L116.464 238.914ZM87.8454 232.812C88.6534 233.027 89.48 232.546 89.6954 231.742L86.7975 230.966C87.0095 230.175 87.8236 229.701 88.6194 229.913L87.8454 232.812ZM77.8811 230.151C77.0813 229.937 76.6064 229.115 76.8207 228.316L79.7185 229.092C79.9332 228.291 79.4573 227.467 78.6558 227.253L77.8811 230.151ZM76.8181 228.313C76.6044 229.113 77.0789 229.937 77.8811 230.151L78.6558 227.253C79.4562 227.467 79.9297 228.289 79.7165 229.087L76.8181 228.313ZM88.9245 213.888C88.5116 213.175 88.7568 212.262 89.4708 211.851L90.9665 214.452C91.6911 214.035 91.9399 213.109 91.5209 212.385L88.9245 213.888ZM89.6673 231.759C89.4547 232.552 88.6394 233.024 87.8454 232.812L88.6194 229.913C87.8132 229.698 86.9854 230.177 86.7695 230.982L89.6673 231.759ZM126.059 223.839C126.785 223.421 127.031 222.493 126.611 221.771L124.018 223.279C123.603 222.567 123.846 221.651 124.562 221.239L126.059 223.839ZM89.4811 211.82C88.7555 212.236 88.5047 213.163 88.9245 213.888L91.5209 212.385C91.9346 213.1 91.6875 214.013 90.9724 214.423L89.4811 211.82ZM74.0175 264.471C77.5651 265.421 81.2115 263.316 82.1621 259.769L79.2643 258.992C78.7425 260.939 76.7411 262.095 74.7939 261.573L74.0175 264.471ZM129.328 242.384C129.113 243.183 128.291 243.658 127.491 243.443L128.27 240.546C127.469 240.33 126.645 240.806 126.43 241.607L129.328 242.384ZM126.605 221.801C127.018 222.514 126.774 223.427 126.059 223.839L124.562 221.239C123.837 221.656 123.59 222.582 124.009 223.305L126.605 221.801ZM69.3152 256.326C68.3647 259.874 70.4699 263.52 74.0175 264.471L74.7939 261.573C72.8468 261.051 71.6913 259.05 72.213 257.103L69.3152 256.326ZM113.678 275.096C117.225 276.047 120.872 273.942 121.822 270.394L118.924 269.618C118.403 271.565 116.401 272.72 114.454 272.198L113.678 275.096ZM126.434 241.604C126.648 240.805 127.47 240.331 128.27 240.546L127.491 243.443C128.293 243.658 129.116 243.183 129.331 242.383L126.434 241.604Z" fill="#54298B"/>
<path d="M51.8237 283.44C49.189 293.164 54.9363 303.183 64.6607 305.818L100.919 315.641C110.643 318.275 120.663 312.528 123.297 302.803L129.328 280.544C131.963 270.819 126.216 260.801 116.491 258.166L80.233 248.343C70.5086 245.708 60.4895 251.456 57.8548 261.18L51.8237 283.44Z" fill="white" stroke="#54298B" stroke-width="3"/>
<mask id="path-40-inside-1_1207_9587" fill="white">
<path fill-rule="evenodd" clip-rule="evenodd" d="M83.7273 286.832C84.2821 285.638 83.9906 284.248 83.2892 283.133C81.8765 280.889 81.3667 278.09 82.1057 275.332C83.5166 270.066 88.9466 266.946 94.2338 268.362C99.521 269.779 102.663 275.196 101.252 280.462C100.513 283.22 98.6726 285.389 96.3272 286.626C95.1625 287.241 94.215 288.299 94.0983 289.611L93.7408 293.631C93.5678 295.578 91.681 296.897 89.7939 296.391L84.0652 294.856C82.1781 294.35 81.2037 292.265 82.0268 290.493L83.7273 286.832Z"/>
</mask>
<path fill-rule="evenodd" clip-rule="evenodd" d="M83.7273 286.832C84.2821 285.638 83.9906 284.248 83.2892 283.133C81.8765 280.889 81.3667 278.09 82.1057 275.332C83.5166 270.066 88.9466 266.946 94.2338 268.362C99.521 269.779 102.663 275.196 101.252 280.462C100.513 283.22 98.6726 285.389 96.3272 286.626C95.1625 287.241 94.215 288.299 94.0983 289.611L93.7408 293.631C93.5678 295.578 91.681 296.897 89.7939 296.391L84.0652 294.856C82.1781 294.35 81.2037 292.265 82.0268 290.493L83.7273 286.832Z" fill="#54298B"/>
<path d="M93.7408 293.631L96.729 293.897L93.7408 293.631ZM89.7939 296.391L90.5704 293.493L89.7939 296.391ZM84.0652 294.856L83.2887 297.754L84.0652 294.856ZM82.0268 290.493L79.3061 289.229L82.0268 290.493ZM83.2892 283.133L85.8281 281.535L83.2892 283.133ZM83.7273 286.832L86.448 288.096L83.7273 286.832ZM85.0034 276.108C84.4902 278.024 84.8407 279.966 85.8281 281.535L80.7502 284.731C78.9124 281.811 78.2433 278.155 79.2079 274.555L85.0034 276.108ZM93.4573 271.26C89.7595 270.269 85.9826 272.454 85.0034 276.108L79.2079 274.555C81.0506 267.678 88.1337 263.622 95.0103 265.465L93.4573 271.26ZM98.3545 279.686C99.3337 276.031 97.1552 272.251 93.4573 271.26L95.0103 265.465C101.887 267.307 105.993 274.361 104.15 281.239L98.3545 279.686ZM94.9273 283.973C96.5666 283.108 97.8413 281.601 98.3545 279.686L104.15 281.239C103.186 284.838 100.778 287.67 97.7271 289.28L94.9273 283.973ZM90.7526 293.366L91.1101 289.345L97.0865 289.877L96.729 293.897L90.7526 293.366ZM84.8417 291.958L90.5704 293.493L89.0174 299.289L83.2887 297.754L84.8417 291.958ZM86.448 288.096L84.7475 291.757L79.3061 289.229L81.0065 285.568L86.448 288.096ZM96.729 293.897C96.3909 297.699 92.7046 300.277 89.0174 299.289L90.5704 293.493C90.6011 293.501 90.6195 293.5 90.6325 293.498C90.6492 293.494 90.67 293.487 90.6912 293.472C90.7123 293.457 90.7268 293.44 90.7354 293.426C90.7422 293.414 90.7498 293.398 90.7526 293.366L96.729 293.897ZM97.7271 289.28C97.4637 289.419 97.2809 289.581 97.1788 289.711C97.1306 289.772 97.1075 289.817 97.0971 289.841C97.0876 289.864 97.0868 289.874 97.0865 289.877L91.1101 289.345C91.3464 286.688 93.2031 284.883 94.9273 283.973L97.7271 289.28ZM83.2887 297.754C79.6016 296.766 77.6978 292.691 79.3061 289.229L84.7475 291.757C84.7341 291.786 84.7323 291.804 84.7325 291.817C84.7327 291.834 84.7367 291.856 84.7477 291.879C84.7586 291.903 84.7727 291.92 84.7856 291.931C84.7957 291.94 84.8109 291.95 84.8417 291.958L83.2887 297.754ZM85.8281 281.535C86.8666 283.185 87.572 285.677 86.448 288.096L81.0065 285.568C81.0077 285.566 81.012 285.557 81.015 285.533C81.0184 285.506 81.0208 285.456 81.0097 285.379C80.9862 285.215 80.9089 284.983 80.7502 284.731L85.8281 281.535Z" fill="#54298B" mask="url(#path-40-inside-1_1207_9587)"/>
</svg>
