<svg width="357" height="285" viewBox="0 0 357 285" fill="none" xmlns="http://www.w3.org/2000/svg">
<circle cx="188.659" cy="142.5" r="142.5" fill="#54298B"/>
<path fill-rule="evenodd" clip-rule="evenodd" d="M340.814 57.2362C340.814 57.2365 340.815 57.2362 340.815 57.2356C342.962 52.6915 343.707 47.6104 342.957 42.6348C342.706 40.9748 342.294 39.3514 341.728 37.7864C341.726 37.781 341.729 37.775 341.735 37.7731C341.74 37.7711 341.743 37.7651 341.741 37.7597C340.023 33.0293 336.941 28.9081 332.882 25.9167C331.64 25.0011 330.323 24.204 328.95 23.5314C327.341 22.7412 325.645 22.1181 323.889 21.6777C318.999 20.4513 313.858 20.6966 309.116 22.3827C309.111 22.3847 309.108 22.3909 309.11 22.3965C309.112 22.4021 309.109 22.4083 309.103 22.4103C307.537 22.9704 306.022 23.6852 304.582 24.5489C300.267 27.1372 296.822 30.9459 294.684 35.4934C294.683 35.4942 294.683 35.4952 294.684 35.4955C294.685 35.4959 294.685 35.4969 294.685 35.4977L282.41 61.5426C281.206 64.0971 282.301 67.1439 284.855 68.3479C287.41 69.5518 290.457 68.457 291.661 65.9025L303.935 39.8584C303.938 39.8528 303.945 39.8503 303.95 39.853C303.956 39.8557 303.963 39.8532 303.966 39.8476C305.245 37.1315 307.304 34.8568 309.882 33.3103C312.463 31.7619 315.449 31.0132 318.462 31.1588C320.553 31.2598 322.591 31.788 324.454 32.6998C326.171 33.5442 327.724 34.7071 329.024 36.1359C331.054 38.3672 332.377 41.1469 332.826 44.1234C333.274 47.096 332.83 50.1315 331.549 52.8471C331.547 52.853 331.549 52.86 331.555 52.8628C331.561 52.8656 331.563 52.8726 331.561 52.8784L319.287 78.9209C318.083 81.4753 319.178 84.5222 321.732 85.7261C324.286 86.9301 327.333 85.8352 328.537 83.2808L340.812 57.2368C340.812 57.2362 340.813 57.2359 340.814 57.2362Z" fill="#E1CAFF"/>
<path d="M261.23 81.7636C257.971 88.6289 260.894 96.8363 267.76 100.095L309.317 119.822C316.182 123.081 324.39 120.158 327.649 113.292L341.201 84.7443C344.46 77.879 341.537 69.6716 334.671 66.4127L293.114 46.6858C286.249 43.4268 278.042 46.3503 274.782 53.2156L261.23 81.7636Z" fill="#F1DC6D"/>
<mask id="path-4-inside-1_1267_3443" fill="white">
<path fill-rule="evenodd" clip-rule="evenodd" d="M293.888 86.5022C294.46 85.69 294.439 84.6179 294.02 83.7175C292.833 81.1708 292.743 78.1407 294.032 75.407C296.339 70.5108 302.195 68.4199 307.111 70.7369C312.027 73.0539 314.142 78.9013 311.834 83.7975C310.546 86.5311 308.151 88.3903 305.432 89.0961C304.471 89.3457 303.63 90.0121 303.368 90.9701L301.936 96.2006C301.546 97.622 299.969 98.3483 298.636 97.72L291.694 94.4482C290.361 93.8199 289.917 92.1411 290.766 90.9361L293.888 86.5022Z"/>
</mask>
<path fill-rule="evenodd" clip-rule="evenodd" d="M293.888 86.5022C294.46 85.69 294.439 84.6179 294.02 83.7175C292.833 81.1708 292.743 78.1407 294.032 75.407C296.339 70.5108 302.195 68.4199 307.111 70.7369C312.027 73.0539 314.142 78.9013 311.834 83.7975C310.546 86.5311 308.151 88.3903 305.432 89.0961C304.471 89.3457 303.63 90.0121 303.368 90.9701L301.936 96.2006C301.546 97.622 299.969 98.3483 298.636 97.72L291.694 94.4482C290.361 93.8199 289.917 92.1411 290.766 90.9361L293.888 86.5022Z" fill="#54298B"/>
<path d="M305.432 89.0961L306.001 91.2864L305.432 89.0961ZM291.694 94.4482L290.729 96.4952L291.694 94.4482ZM290.766 90.9361L292.616 92.2391L290.766 90.9361ZM294.02 83.7175L296.071 82.7618L294.02 83.7175ZM293.888 86.5022L295.738 87.8051L293.888 86.5022ZM296.079 76.3718C295.089 78.4704 295.155 80.7964 296.071 82.7618L291.969 84.6731C290.511 81.5452 290.397 77.8109 291.985 74.4423L296.079 76.3718ZM306.146 72.7839C302.353 70.996 297.85 72.6139 296.079 76.3718L291.985 74.4423C294.829 68.4078 302.037 65.8438 308.076 68.6899L306.146 72.7839ZM309.787 82.8328C311.558 79.0748 309.94 74.5717 306.146 72.7839L308.076 68.6899C314.115 71.536 316.725 78.7278 313.881 84.7623L309.787 82.8328ZM304.863 86.9058C306.962 86.361 308.798 84.9314 309.787 82.8328L313.881 84.7623C312.293 88.1308 309.341 90.4195 306.001 91.2864L304.863 86.9058ZM299.753 95.6029L301.186 90.3724L305.551 91.5679L304.118 96.7984L299.753 95.6029ZM292.659 92.4012L299.601 95.673L297.671 99.767L290.729 96.4952L292.659 92.4012ZM295.738 87.8051L292.616 92.2391L288.915 89.6332L292.038 85.1993L295.738 87.8051ZM304.118 96.7984C303.358 99.5755 300.276 100.995 297.671 99.767L299.601 95.673C299.622 95.6833 299.636 95.6847 299.646 95.6846C299.659 95.6846 299.675 95.6816 299.693 95.6734C299.711 95.6653 299.724 95.6547 299.732 95.645C299.739 95.6375 299.747 95.6261 299.753 95.6029L304.118 96.7984ZM306.001 91.2864C305.83 91.3306 305.703 91.4047 305.628 91.4706C305.559 91.5309 305.551 91.5662 305.551 91.5679L301.186 90.3724C301.714 88.4416 303.33 87.3037 304.863 86.9058L306.001 91.2864ZM290.729 96.4952C288.125 95.2676 287.258 91.9874 288.915 89.6332L292.616 92.2391C292.602 92.2587 292.598 92.2721 292.597 92.2819C292.594 92.2945 292.595 92.3113 292.599 92.3301C292.604 92.3489 292.613 92.3636 292.621 92.3735C292.627 92.3812 292.637 92.391 292.659 92.4012L290.729 96.4952ZM296.071 82.7618C296.74 84.1975 296.891 86.1683 295.738 87.8051L292.038 85.1993C292.039 85.1979 292.061 85.1694 292.064 85.0778C292.067 84.9778 292.043 84.8326 291.969 84.6731L296.071 82.7618Z" fill="#54298B" mask="url(#path-4-inside-1_1267_3443)"/>
<path d="M21.0453 129.682C32.1077 118.633 49.6375 118.226 65.6624 134.233C79.565 148.12 76.447 145.007 80.8277 149.382C91.5204 160.063 93.2766 176.057 92.0828 186.729L60.5248 155.204C59.4176 154.099 57.6243 154.099 56.519 155.204C55.4136 156.31 55.4136 158.101 56.519 159.207L102.416 205.056C104.075 206.714 104.075 209.402 102.416 211.059C100.758 212.716 98.0658 212.716 96.4069 211.059L84.7168 199.381C75.4673 202.16 54.3189 202.595 41.0636 189.665H58.429L32.3305 180.974C23.4895 172.144 25.8965 174.575 24.1403 172.687H41.4332L18.1697 164.94C10.1334 151.772 12.1018 138.617 21.0453 129.682Z" fill="#AE77F5"/>
<path d="M127.07 254.759H182.568C183.496 254.759 184.405 254.501 185.194 254.013C189.478 251.368 187.603 244.764 182.568 244.764H143.252C132.529 244.764 123.835 236.16 123.835 225.546C123.835 222.212 124.693 219.076 126.203 216.342C126.49 216.33 126.78 216.323 127.07 216.323H242.516H316.062C324.237 216.323 335.946 211.323 341.049 204.243C347.347 201.066 351.66 194.587 351.66 187.11C351.66 176.497 342.967 167.893 332.244 167.893H185.416C184.489 167.893 183.579 168.151 182.79 168.638C178.506 171.284 180.381 177.888 185.416 177.888H316.062C326.785 177.888 343.588 186.492 343.588 197.106C343.588 199.628 342.639 202.037 341.049 204.243C338.406 205.576 335.413 206.328 332.244 206.328H143.252C135.897 206.328 129.498 210.375 126.203 216.342C115.882 216.791 107.653 225.215 107.653 235.541C107.653 246.155 116.347 254.759 127.07 254.759Z" fill="#F1DC6D"/>
<path d="M96.647 108.825H162.413C163.341 108.825 164.25 108.567 165.039 108.08C169.323 105.434 167.448 98.8303 162.413 98.8303H112.829C102.105 98.8303 93.4121 90.2262 93.4121 79.6125C93.4121 76.278 94.2701 73.1419 95.7796 70.4086C96.0671 70.3961 96.3563 70.3898 96.647 70.3898H154.039H227.585C235.76 70.3898 247.469 65.3891 252.572 58.3097C258.87 55.1325 263.183 48.6532 263.183 41.1768C263.183 30.5631 254.49 21.959 243.767 21.959H106.699C105.772 21.959 104.862 22.2172 104.073 22.7047C99.7896 25.3505 101.665 31.9541 106.699 31.9541H227.585C238.308 31.9541 255.111 40.5582 255.111 51.172C255.111 53.6942 254.162 56.1029 252.572 58.3097C249.929 59.6429 246.936 60.3947 243.767 60.3947H112.829C105.474 60.3947 99.0747 64.4418 95.7796 70.4086C85.4585 70.8577 77.2302 79.2816 77.2302 89.6076C77.2302 100.221 85.9234 108.825 96.647 108.825Z" fill="#F1DC6D"/>
<path d="M213.197 23.553C215.031 34.266 206.779 44.0507 195.91 44.0507L106.956 44.0507C98.3736 44.0507 91.052 37.8399 89.6524 29.3726C87.8866 18.6895 96.1278 8.97429 106.956 8.97429L195.91 8.9743C204.454 8.9743 211.755 15.1314 213.197 23.553Z" fill="#F1DC6D"/>
<path d="M112.245 35.0449L112.728 29.9677L108.583 33.0704L106.165 28.6984L111.692 26.5124L106.165 24.3264L108.583 19.9544L112.728 23.0571L112.245 17.98L117.15 17.98L116.735 23.0571L120.881 19.9544L123.23 24.3264L117.772 26.5124L123.23 28.6984L120.881 33.0704L116.735 29.9677L117.15 35.0449L112.245 35.0449Z" fill="#54298B"/>
<path d="M136.776 35.0449L137.259 29.9677L133.114 33.0704L130.696 28.6984L136.223 26.5124L130.696 24.3264L133.114 19.9544L137.259 23.0571L136.776 17.98L141.681 17.98L141.267 23.0571L145.412 19.9544L147.761 24.3264L142.303 26.5124L147.761 28.6984L145.412 33.0704L141.267 29.9677L141.681 35.0449L136.776 35.0449Z" fill="#54298B"/>
<path d="M161.306 35.0449L161.79 29.9677L157.645 33.0704L155.226 28.6984L160.754 26.5124L155.226 24.3264L157.645 19.9544L161.79 23.0571L161.306 17.98L166.212 17.98L165.797 23.0571L169.942 19.9544L172.291 24.3264L166.833 26.5124L172.291 28.6984L169.942 33.0704L165.797 29.9677L166.212 35.0449L161.306 35.0449Z" fill="#54298B"/>
<path d="M185.837 35.0449L186.321 29.9677L182.175 33.0704L179.757 28.6984L185.284 26.5124L179.757 24.3264L182.175 19.9544L186.321 23.0571L185.837 17.98L190.742 17.98L190.328 23.0571L194.473 19.9544L196.822 24.3264L191.364 26.5124L196.822 28.6984L194.473 33.0704L190.328 29.9677L190.742 35.0449L185.837 35.0449Z" fill="#54298B"/>
<path d="M128.661 72.1006C127.495 64.7945 133.14 58.178 140.538 58.178H223.894C229.805 58.178 234.84 62.4732 235.771 68.3104L250.163 158.511C251.329 165.817 245.684 172.433 238.286 172.433H154.931C149.02 172.433 143.985 168.138 143.053 162.301L128.661 72.1006Z" fill="#AE77F5"/>
<path d="M136.266 66.6944C135.1 59.3882 140.745 52.7717 148.143 52.7717H231.498C237.409 52.7717 242.444 57.0669 243.375 62.9041L257.767 153.104C258.933 160.41 253.289 167.026 245.89 167.026H162.535C156.624 167.026 151.59 162.731 150.658 156.894L136.266 66.6944Z" fill="white"/>
<path d="M162.743 131.173C161.666 123.907 167.296 117.382 174.641 117.382H187.501C193.462 117.382 198.524 121.748 199.398 127.645L200.832 137.314C201.909 144.58 196.279 151.106 188.934 151.106H176.074C170.113 151.106 165.051 146.739 164.177 140.842L162.743 131.173Z" fill="white" stroke="#54298B" stroke-width="2.77558"/>
<path d="M171.839 133.757L179.713 142L192.358 125.778" stroke="#54298B" stroke-width="2.77558" stroke-linejoin="round"/>
<path d="M153.143 79.5898C152.066 72.3243 157.696 65.7986 165.041 65.7986H177.901C183.862 65.7986 188.924 70.1654 189.799 76.0624L191.232 85.7312C192.309 92.9968 186.679 99.5225 179.334 99.5225H166.474C160.513 99.5225 155.451 95.1557 154.577 89.2587L153.143 79.5898Z" fill="#54298B" stroke="#54298B" stroke-width="2.77558"/>
<path d="M183.445 91.4213L160.929 73.9006" stroke="white" stroke-width="2.77558" stroke-linejoin="round"/>
<path d="M163.666 92.0867L181.068 73.1567" stroke="white" stroke-width="2.77558" stroke-linejoin="round"/>
<path d="M206.927 82.6992H231.472" stroke="#54298B" stroke-width="2.77558" stroke-linecap="round" stroke-linejoin="round"/>
<path d="M216.707 134.244H241.251" stroke="#54298B" stroke-width="2.77558" stroke-linecap="round" stroke-linejoin="round"/>
<path d="M209.505 96.3311H234.049" stroke="#54298B" stroke-width="2.77558" stroke-linecap="round" stroke-linejoin="round"/>
<path d="M219.283 147.875H243.827" stroke="#54298B" stroke-width="2.77558" stroke-linecap="round" stroke-linejoin="round"/>
<path d="M204.009 69.699H228.895" stroke="#54298B" stroke-width="2.77558" stroke-linecap="round" stroke-linejoin="round"/>
<path d="M213.788 121.243H238.673" stroke="#54298B" stroke-width="2.77558" stroke-linecap="round" stroke-linejoin="round"/>
<path d="M198.072 159.823L141.176 203.879C138.387 206.039 139.914 210.506 143.442 210.506H271.808C275.538 210.506 276.926 205.612 273.75 203.655L202.279 159.599C200.967 158.79 199.291 158.879 198.072 159.823Z" fill="#AE77F5"/>
<path d="M125.855 111.175L199.824 158.981L259.071 110.496C262.37 107.796 267.355 109.669 268.061 113.873L282.78 201.528C283.579 206.287 278.344 209.729 274.292 207.11L199.824 158.981L140.156 207.81C136.837 210.526 131.823 208.613 131.156 204.377L117.358 116.7C116.612 111.96 121.825 108.57 125.855 111.175Z" fill="#E1CAFF"/>
<path fill-rule="evenodd" clip-rule="evenodd" d="M283.377 271.886C283.789 274.471 281.792 276.811 279.175 276.811L198.748 276.811C196.657 276.811 194.876 275.291 194.546 273.226L193.041 263.784L186.14 263.784C184.048 263.784 182.267 262.264 181.938 260.199L179.747 246.455C179.335 243.87 181.331 241.53 183.948 241.53L189.493 241.53L188.201 233.427C187.789 230.843 189.786 228.503 192.402 228.503L272.83 228.503C274.921 228.503 276.702 230.022 277.031 232.087L283.377 271.886ZM259.829 263.522C266.512 263.522 271.611 257.545 270.558 250.945C269.717 245.672 265.169 241.792 259.829 241.792L258.804 241.792C252.12 241.792 247.021 247.769 248.075 254.369C248.916 259.642 253.464 263.522 258.804 263.522L259.829 263.522Z" fill="#AE77F5"/>
<path d="M196.703 254.033C197.115 256.617 195.119 258.957 192.502 258.957L170.624 258.957C168.533 258.957 166.751 257.438 166.422 255.373L165.141 247.338C164.729 244.753 166.726 242.413 169.343 242.413L191.221 242.413C193.312 242.413 195.093 243.933 195.422 245.998L196.703 254.033Z" fill="#E1CAFF"/>
<path fill-rule="evenodd" clip-rule="evenodd" d="M287.32 267.943C287.732 270.527 285.736 272.867 283.119 272.867L202.692 272.867C200.601 272.867 198.819 271.348 198.49 269.283L196.985 259.84L190.083 259.84C187.992 259.84 186.211 258.321 185.882 256.256L183.691 242.511C183.279 239.927 185.275 237.587 187.892 237.587L193.437 237.587L192.145 229.484C191.733 226.9 193.729 224.559 196.346 224.559L276.774 224.559C278.865 224.559 280.646 226.079 280.975 228.144L287.32 267.943ZM263.773 259.579C270.456 259.579 275.555 253.601 274.502 247.001C273.661 241.728 269.112 237.848 263.773 237.848L262.748 237.848C256.064 237.848 250.965 243.825 252.018 250.425C252.86 255.698 257.408 259.579 262.748 259.579L263.773 259.579Z" fill="white"/>
</svg>
