<svg width="69" height="43" viewBox="0 0 69 43" fill="none" xmlns="http://www.w3.org/2000/svg">
<path d="M38.8987 3.90277L37.7991 8.27928C39.3568 5.17925 41.8767 2.85423 44.7632 0.802734C42.6556 3.21894 40.7313 5.63514 39.5859 8.09693C41.556 5.31602 44.2134 3.81159 47.1915 2.76305C43.2054 6.27338 40.0441 10.1028 37.6616 13.8867L35.7373 13.0661C36.058 10.0117 37.2034 6.91162 38.8987 3.90277Z" fill="#878787"/>
<path d="M37.4331 13.7051L38.7618 14.3889C38.6243 15.2551 38.8076 17.1698 39.6781 17.6257C43.5267 19.9963 47.1004 22.5493 48.5207 25.1478C53.5606 34.22 44.9929 42.6539 37.5247 41.8333C41.5566 38.87 42.7478 32.7612 41.2359 26.0596C40.6403 23.4611 39.6781 21.0904 37.9829 18.4007C37.2498 17.1698 37.5247 15.5286 37.4331 13.7051Z" fill="#878787"/>
<path d="M35.9665 18.0352C35.6916 19.4484 35.3709 22.0014 34.1339 22.9587C33.6299 23.3234 33.0801 23.6882 32.5303 24.0529C30.2853 25.5573 28.0861 26.9705 27.0781 30.572C26.849 31.3471 27.0323 32.1677 27.2155 32.9427C27.7653 35.1765 29.3231 37.5471 30.5602 38.9604C30.5602 39.006 30.7892 39.1883 30.7892 39.2339C31.7972 40.4192 32.1179 40.7839 35.9665 41.6501L35.8749 42.0604C33.5383 41.4677 31.6598 40.8751 30.4227 39.5074C30.4227 39.4618 30.1936 39.2795 30.1936 39.2795C28.9108 37.8207 27.3072 35.3589 26.7574 33.0338C26.5283 32.1221 26.345 31.3926 26.6199 30.4353C27.6737 26.697 29.9645 25.1926 32.2554 23.6426C32.7594 23.3234 33.4008 23.0043 33.9048 22.594C34.9586 21.9102 35.4625 19.7675 35.9665 18.0352Z" fill="#878787"/>
<path d="M36.9749 23.9609C37.0207 25.5565 36.8374 26.3771 37.2498 27.5169C37.4789 28.2007 38.3494 29.1125 38.5785 30.0242C38.8992 31.2095 39.2657 32.5316 39.2657 33.3522C39.2657 34.264 39.2199 35.9964 38.8075 37.8199C38.4868 39.3243 37.7996 40.6464 36.6083 41.3758C35.3713 41.1479 33.951 40.692 33.1263 39.9626C31.4769 38.5493 30.0566 36.1787 29.8733 34.1272C29.7358 32.4404 31.2936 29.9331 33.4928 28.7022C35.3255 27.608 35.7836 26.4227 36.196 24.4168C35.6462 26.1492 35.0964 27.5624 33.3095 28.5198C30.698 29.8875 29.3693 32.1213 29.5068 34.3096C29.69 37.0905 30.7896 38.9596 32.9888 40.464C33.9052 41.1023 35.6462 41.7861 36.7458 41.9685V41.8317C37.5705 41.6949 38.6243 40.3273 39.1741 38.5493C39.6322 36.9081 39.8155 34.8566 39.7697 33.5346C39.7239 32.7596 39.4032 31.1184 38.7617 29.6139C38.441 28.7933 37.8912 27.9727 37.5705 27.3801C37.1581 26.6963 37.1581 25.4198 36.9749 23.9609Z" fill="#878787"/>
<path d="M36.6994 30.207C36.7453 31.3012 37.1576 32.6688 37.3409 34.0821C37.4783 35.1306 37.4325 36.1792 37.3867 37.0909C37.3409 38.1395 37.0201 40.0542 36.5162 41.0116C36.058 40.7836 35.8747 40.5557 35.554 40.191C35.1875 39.6895 34.9126 39.1424 34.6835 38.5498C34.5002 38.0939 34.2712 37.5468 34.1795 36.9542C34.0421 36.0424 34.0879 34.5835 35.1417 33.1247C35.9664 31.9394 36.1496 31.8482 36.4245 30.5262C36.058 31.7115 35.7831 31.8482 34.9126 32.8512C33.9504 33.9453 33.813 35.5865 33.813 36.9086C33.813 37.4556 34.0421 38.0939 34.2712 38.6409C34.5002 39.2336 34.7293 39.8718 35.05 40.3277C35.554 41.0571 36.1954 41.513 36.5162 41.5586V41.513C37.1118 40.8292 37.4783 40.191 37.6158 39.5071C37.7532 38.6865 37.799 37.9115 37.8907 36.9542C37.9823 36.1336 37.9365 35.085 37.7074 33.9909C37.4325 32.6232 36.9285 31.21 36.6994 30.207Z" fill="#878787"/>
<path d="M36.8832 16.7578C36.929 18.3534 37.0207 21.3167 37.4788 22.502C37.6163 22.9123 38.7617 24.6447 39.5406 26.7873C40.0904 28.2462 40.2278 29.6138 40.3195 30.0241C40.686 31.7565 40.2278 34.7198 39.6322 37.5007C39.3115 39.0051 38.2577 40.8742 37.0665 41.6037L36.8374 42.014C37.5247 41.9684 39.1741 40.3728 39.7697 38.3213C40.7777 34.9021 41.1442 33.3065 40.686 29.4771C40.6402 29.1124 40.4569 27.8359 39.8613 26.5138C38.9908 24.4623 37.7537 22.502 37.6163 22.0917C37.2956 21.4534 36.929 18.6269 36.8832 16.7578Z" fill="#878787"/>
<path d="M37.4325 13.8398C37.3409 15.481 37.3409 16.7575 37.6158 17.9884C37.9365 19.3105 39.6775 21.2252 40.4106 23.4135C41.7851 27.6076 41.4186 33.0783 40.4564 37.318C40.0899 38.8225 38.3489 41.0107 36.562 41.6945L37.8449 42.0137C38.5321 41.9681 40.3648 40.2813 41.0979 38.3666C42.2433 35.3121 42.4724 31.7106 42.0142 27.8812C41.9684 27.5165 41.3728 24.2341 40.7771 22.8664C39.9524 20.8149 38.6238 19.3561 38.1656 18.0796C37.7991 17.1222 37.6616 14.5693 37.8907 14.0678L37.4325 13.8398Z" fill="#878787"/>
<path d="M1.74103 4.81445H26.5278C27.4442 4.81445 28.2689 5.58946 28.2689 6.54682V13.841C28.2689 14.7984 27.4442 15.5734 26.5278 15.5734H21.4422C20.2968 15.5734 19.7928 16.2116 19.7928 16.941V40.7839C19.7928 41.6045 19.1514 42.1972 18.3725 42.1972H9.94221C9.16333 42.1972 8.56771 41.6045 8.56771 40.7839V16.7131C8.56771 15.9837 7.88046 15.5278 7.37648 15.5278H1.74103C0.778883 15.5278 0 14.7528 0 13.7954V6.50123C0 5.58946 0.778883 4.81445 1.74103 4.81445Z" fill="#878787"/>
<path d="M65.3345 14.4785H67.5336C68.3583 14.4785 68.9998 15.1168 68.9998 15.8918V23.6874C68.9998 24.6904 69.0456 25.1007 67.8085 25.1007C65.3803 25.1007 64.2807 26.3772 64.2807 27.7904V40.9656C64.2807 41.5582 63.6851 42.1053 62.9978 42.1053H55.1173C54.4301 42.1053 53.8345 41.6038 53.8345 40.9656V25.9669C53.8345 25.6933 53.8345 25.3286 53.8803 25.1007C54.2926 19.5389 58.691 15.1168 64.2348 14.5241C64.3723 14.5241 65.0137 14.4785 65.3345 14.4785Z" fill="#878787"/>
<path d="M46.5949 21.9099C45.2662 20.7246 43.6168 19.7216 41.8758 18.7643C41.0969 18.354 38.7145 16.4848 39.5392 13.8407L33.5372 11.3789L33.1248 11.698C35.1408 15.2995 34.087 17.2143 33.079 17.8525C31.0631 19.2202 28.1308 20.9525 26.7105 22.457C23.9157 25.3291 23.091 28.0644 23.3659 31.6203C23.6408 36.2248 26.9854 40.0542 31.5212 41.5586C33.4914 42.1969 35.324 42.2881 37.34 42.2881C40.5929 42.2881 43.9834 41.4219 46.4116 39.416C49.0232 37.2733 50.5351 34.0365 50.5351 30.7085C50.5351 27.3805 49.1148 24.1893 46.5949 21.9099ZM45.7244 38.7321C43.4794 40.5557 39.4475 41.8322 37.2941 41.741C34.9117 41.6042 32.575 41.2395 30.5133 40.2366C26.8938 38.5042 24.5113 34.7203 24.328 31.6659C24.0073 25.4202 27.0312 23.6423 29.826 21.3628C31.3838 20.0863 33.583 19.4481 34.82 17.1687C35.0491 16.6672 35.1866 15.5731 34.9117 14.4333C34.7742 14.0231 34.2244 12.6554 33.9953 12.3363L38.4854 14.2966C37.9356 16.3481 39.6308 18.4907 41.0053 19.2658C42.3798 20.0408 44.5332 21.4996 45.8618 22.6849C48.1985 24.7364 49.3897 27.6541 49.3897 30.7085C49.3897 33.763 48.1069 36.7718 45.7244 38.7321Z" fill="#878787"/>
</svg>
