<svg width="218" height="135" viewBox="0 0 218 135" fill="none" xmlns="http://www.w3.org/2000/svg">
<g clip-path="url(#clip0_1207_10196)">
<path d="M109 0C49.2367 0 0.000973128 48.0048 0.000973128 107.222V166.633C0.000324797 166.709 0 166.786 0 166.863C0 166.94 0.000324797 167.017 0.000973128 167.094V168.618H0.0564392C0.98353 182.982 13.2163 194.352 28.1707 194.352C31.359 194.352 34.4235 193.835 37.2812 192.883C43.2149 201.604 53.3703 207.353 64.9017 207.353C70.6218 207.353 76.0033 205.938 80.6989 203.448C87.5844 211.14 97.7102 216 108.999 216C120.288 216 130.414 211.14 137.3 203.447C141.996 205.938 147.377 207.353 153.098 207.353C164.629 207.353 174.785 201.604 180.718 192.883C183.576 193.835 186.641 194.352 189.829 194.352C204.784 194.352 217.017 182.982 217.944 168.618H217.999V167.106C218 167.025 218 166.944 218 166.863L218 166.779C218 166.744 218 166.71 217.999 166.676L217.999 166.621V107.222C217.999 48.0047 168.763 0 109 0Z" fill="#AE77F5"/>
<path d="M51.7487 67.4738C40.7948 67.4738 31.9149 76.2724 31.9149 87.1262V107.316C31.9149 107.42 31.9157 107.524 31.9174 107.628C31.9157 107.731 31.9149 107.835 31.9149 107.939V128.129C31.9149 138.983 40.7948 147.782 51.7487 147.782C62.7026 147.782 71.5825 138.983 71.5825 128.129V107.939C71.5825 107.835 71.5817 107.731 71.5801 107.628C71.5817 107.524 71.5825 107.42 71.5825 107.316V87.1262C71.5825 76.2725 62.7026 67.4738 51.7487 67.4738Z" fill="#CCA4FF"/>
<path d="M166.394 67.4738C155.44 67.4738 146.56 76.2724 146.56 87.1262V107.316C146.56 107.42 146.561 107.524 146.563 107.628C146.561 107.731 146.56 107.835 146.56 107.939V128.129C146.56 138.983 155.44 147.782 166.394 147.782C177.348 147.782 186.228 138.983 186.228 128.129V107.939C186.228 107.835 186.227 107.731 186.225 107.628C186.227 107.524 186.228 107.42 186.228 107.316V87.1262C186.228 76.2725 177.348 67.4738 166.394 67.4738Z" fill="#CCA4FF"/>
<path d="M31.9152 95.2989C31.9152 84.4452 40.7951 75.6465 51.749 75.6465C62.7029 75.6465 71.5828 84.4452 71.5828 95.299V115.489C71.5828 126.343 62.7029 135.141 51.749 135.141C40.7951 135.141 31.9152 126.343 31.9152 115.489V95.2989Z" fill="#282828"/>
<path d="M51.7488 93.5083C51.7488 89.9777 54.6374 87.1155 58.2006 87.1155C61.7639 87.1155 64.6525 89.9777 64.6525 93.5083V99.001C64.6525 102.532 61.7639 105.394 58.2006 105.394C54.6374 105.394 51.7488 102.532 51.7488 99.001V93.5083Z" fill="white"/>
<path d="M146.413 95.2991C146.413 84.4453 155.293 75.6466 166.247 75.6466C177.201 75.6466 186.081 84.4453 186.081 95.2991V115.489C186.081 126.343 177.201 135.142 166.247 135.142C155.293 135.142 146.413 126.343 146.413 115.489V95.2991Z" fill="#282828"/>
<path d="M166.247 93.5083C166.247 89.9777 169.135 87.1155 172.699 87.1155C176.262 87.1155 179.15 89.9777 179.15 93.5083V99.001C179.15 102.532 176.262 105.394 172.699 105.394C169.135 105.394 166.247 102.532 166.247 99.001V93.5083Z" fill="white"/>
<path d="M132.316 114.203C126.106 109.025 116.96 110.017 111.202 115.746L109.057 117.949L106.799 115.746C101.153 110.017 91.8947 109.025 85.6847 114.203C78.5715 120.153 78.2328 130.73 84.5557 137.12L106.46 159.155C107.815 160.587 110.186 160.587 111.541 159.155L133.445 137.12C139.768 130.73 139.429 120.153 132.316 114.203Z" fill="#F1DC6D"/>
<path d="M102.635 120.948C103.314 122.547 101.839 124.006 100.089 124.006L90.0498 124.006C88.2994 124.006 86.8251 122.547 87.5038 120.948C87.9153 119.979 88.5185 119.098 89.2789 118.356C90.0393 117.614 90.942 117.025 91.9356 116.624C92.9291 116.222 93.994 116.016 95.0693 116.016C96.1447 116.016 97.2096 116.222 98.2031 116.624C99.1966 117.025 100.099 117.614 100.86 118.356C101.62 119.098 102.223 119.979 102.635 120.948Z" fill="white"/>
<path d="M130.496 120.948C131.175 122.547 129.701 124.006 127.95 124.006L117.911 124.006C116.161 124.006 114.687 122.547 115.365 120.948C115.777 119.979 116.38 119.098 117.14 118.356C117.901 117.614 118.804 117.025 119.797 116.624C120.791 116.222 121.856 116.016 122.931 116.016C124.006 116.016 125.071 116.222 126.065 116.624C127.058 117.025 127.961 117.614 128.721 118.356C129.482 119.098 130.085 119.979 130.496 120.948Z" fill="white"/>
</g>
<defs>
<clipPath id="clip0_1207_10196">
<rect width="218" height="216" fill="white"/>
</clipPath>
</defs>
</svg>
