<svg width="120" height="43" viewBox="0 0 120 43" fill="none" xmlns="http://www.w3.org/2000/svg">
<path d="M66.5564 37.0828C71.0178 37.0828 72.3646 36.4094 74.8058 33.379C74.8058 35.1456 76.2379 36.5777 78.0046 36.5777H81.2033V9.72498H74.4691V24.7086C74.4691 29.0859 72.1963 31.6112 68.6608 31.6112C65.3779 31.6112 64.1152 29.7593 64.1152 26.1397V9.72498H57.381V27.4865C57.4652 33.9682 60.4956 37.0828 66.5564 37.0828Z" fill="#878787"/>
<path d="M108.133 9.22133L103.79 9.22119L101.587 14.6824C101.587 14.6824 113.349 13.3984 113.349 17.7757V18.365C113.265 19.6276 112.423 20.3011 109.897 20.4694L105.268 20.9745C98.5334 21.4795 96.0081 24.7625 96.0081 28.8872C96.0081 33.8537 99.3752 37.0525 105.689 37.0525C110.066 37.0525 111.918 36.5474 113.349 33.8537C113.433 33.7695 113.517 33.6012 113.601 33.4328C113.601 35.1529 114.996 36.5474 116.716 36.5474H119.999V18.9542C120.083 13.4826 116.382 9.30551 108.133 9.22133ZM113.349 25.2675C113.349 29.1397 110.992 32.3385 106.867 32.3385C103.416 32.3385 101.901 30.7391 101.901 28.298C101.901 26.3619 103.247 24.9308 106.614 24.6783L109.813 24.4258C111.665 24.2574 112.844 23.9207 113.349 23.4156V25.2675Z" fill="#878787"/>
<path d="M100.564 9.22156H98.933C95.2292 9.22156 92.4981 11.1522 91.4037 14.1826V9.72116H85.0062V29.8397C85.0062 33.5589 88.0212 36.5739 91.7405 36.5739V22.0953C91.7405 16.4518 94.3502 14.6877 98.3689 14.6877L100.564 9.22156Z" fill="#878787"/>
<path d="M10.4878 42.3269L18.1666 20.7889C11.7052 21.6317 5.80563 24.3474 0.842529 28.4677C2.05989 34.1799 5.61834 39.0494 10.4878 42.3269Z" fill="#878787"/>
<path d="M35.1167 42.3269C40.0798 39.2367 43.6383 34.2736 44.9493 28.4677C39.9862 24.1601 34.0866 21.4444 27.6252 20.7889L35.1167 42.3269Z" fill="#878787"/>
<path d="M45.698 24.0664V23.0363C45.698 10.2071 35.4909 0 22.9426 0C10.3944 0 0 10.2071 0 23.0363V24.0664C6.64868 19.1033 14.6084 16.3876 22.9426 16.3876C31.0896 16.3876 39.0493 19.1033 45.698 24.0664Z" fill="#878787"/>
</svg>
