<svg width="82" height="82" viewBox="0 0 82 82" fill="none" xmlns="http://www.w3.org/2000/svg">
<path d="M1.5 40C1.5 30.5295 1.50319 23.5775 2.21886 18.2544C2.92873 12.9745 4.31475 9.5223 6.91852 6.91852C9.5223 4.31475 12.9745 2.92873 18.2544 2.21886C23.5775 1.50319 30.5295 1.5 40 1.5H42C51.4705 1.5 58.4225 1.50319 63.7456 2.21886C69.0255 2.92873 72.4777 4.31475 75.0815 6.91852C77.6853 9.5223 79.0713 12.9745 79.7811 18.2544C80.4968 23.5775 80.5 30.5295 80.5 40V42C80.5 51.4705 80.4968 58.4225 79.7811 63.7456C79.0713 69.0255 77.6853 72.4777 75.0815 75.0815C72.4777 77.6853 69.0255 79.0713 63.7456 79.7811C58.4225 80.4968 51.4705 80.5 42 80.5H40C30.5295 80.5 23.5775 80.4968 18.2544 79.7811C12.9745 79.0713 9.5223 77.6853 6.91852 75.0815C4.31475 72.4777 2.92873 69.0255 2.21886 63.7456C1.50319 58.4225 1.5 51.4705 1.5 42V40Z" fill="#FFF9D9"/>
<path opacity="0.2" d="M54.125 26.5625H48.875C48.1501 26.5625 47.5625 27.1501 47.5625 27.875V33.125C47.5625 33.8499 48.1501 34.4375 48.875 34.4375H54.125C54.8499 34.4375 55.4375 33.8499 55.4375 33.125V27.875C55.4375 27.1501 54.8499 26.5625 54.125 26.5625Z" fill="#54298B"/>
<path opacity="0.2" d="M27.875 26.625H33.125C33.8154 26.625 34.375 27.1846 34.375 27.875V33.125C34.375 33.8154 33.8154 34.375 33.125 34.375H27.875C27.1846 34.375 26.625 33.8154 26.625 33.125V27.875C26.625 27.1846 27.1846 26.625 27.875 26.625Z" fill="#54298B" stroke="#54298B" stroke-width="0.125"/>
<path opacity="0.2" d="M48.875 47.625H54.125C54.8154 47.625 55.375 48.1846 55.375 48.875V54.125C55.375 54.8154 54.8154 55.375 54.125 55.375H48.875C48.1846 55.375 47.625 54.8154 47.625 54.125V48.875C47.625 48.1846 48.1846 47.625 48.875 47.625Z" fill="#54298B" stroke="#54298B" stroke-width="0.125"/>
<path opacity="0.2" d="M27.875 47.625H33.125C33.8154 47.625 34.375 48.1846 34.375 48.875V54.125C34.375 54.8154 33.8154 55.375 33.125 55.375H27.875C27.1846 55.375 26.625 54.8154 26.625 54.125V48.875C26.625 48.1846 27.1846 47.625 27.875 47.625Z" fill="#54298B" stroke="#54298B" stroke-width="0.125"/>
<path d="M54.125 26.5625H48.875C48.1501 26.5625 47.5625 27.1501 47.5625 27.875V33.125C47.5625 33.8499 48.1501 34.4375 48.875 34.4375H54.125C54.8499 34.4375 55.4375 33.8499 55.4375 33.125V27.875C55.4375 27.1501 54.8499 26.5625 54.125 26.5625Z" stroke="#54298B" stroke-width="2" stroke-linecap="round" stroke-linejoin="round"/>
<path d="M33.125 26.5625H27.875C27.1501 26.5625 26.5625 27.1501 26.5625 27.875V33.125C26.5625 33.8499 27.1501 34.4375 27.875 34.4375H33.125C33.8499 34.4375 34.4375 33.8499 34.4375 33.125V27.875C34.4375 27.1501 33.8499 26.5625 33.125 26.5625Z" stroke="#54298B" stroke-width="2" stroke-linecap="round" stroke-linejoin="round"/>
<path d="M54.125 47.5625H48.875C48.1501 47.5625 47.5625 48.1501 47.5625 48.875V54.125C47.5625 54.8499 48.1501 55.4375 48.875 55.4375H54.125C54.8499 55.4375 55.4375 54.8499 55.4375 54.125V48.875C55.4375 48.1501 54.8499 47.5625 54.125 47.5625Z" stroke="#54298B" stroke-width="2" stroke-linecap="round" stroke-linejoin="round"/>
<path d="M33.125 47.5625H27.875C27.1501 47.5625 26.5625 48.1501 26.5625 48.875V54.125C26.5625 54.8499 27.1501 55.4375 27.875 55.4375H33.125C33.8499 55.4375 34.4375 54.8499 34.4375 54.125V48.875C34.4375 48.1501 33.8499 47.5625 33.125 47.5625Z" stroke="#54298B" stroke-width="2" stroke-linecap="round" stroke-linejoin="round"/>
<path d="M30.5 47.5625V34.4375" stroke="#54298B" stroke-width="2" stroke-linecap="round" stroke-linejoin="round"/>
<path d="M47.5625 51.5H34.4375" stroke="#54298B" stroke-width="2" stroke-linecap="round" stroke-linejoin="round"/>
<path d="M51.5 34.4375V47.5625" stroke="#54298B" stroke-width="2" stroke-linecap="round" stroke-linejoin="round"/>
<path d="M34.4375 30.5H47.5625" stroke="#54298B" stroke-width="2" stroke-linecap="round" stroke-linejoin="round"/>
<path d="M1.5 40C1.5 30.5295 1.50319 23.5775 2.21886 18.2544C2.92873 12.9745 4.31475 9.5223 6.91852 6.91852C9.5223 4.31475 12.9745 2.92873 18.2544 2.21886C23.5775 1.50319 30.5295 1.5 40 1.5H42C51.4705 1.5 58.4225 1.50319 63.7456 2.21886C69.0255 2.92873 72.4777 4.31475 75.0815 6.91852C77.6853 9.5223 79.0713 12.9745 79.7811 18.2544C80.4968 23.5775 80.5 30.5295 80.5 40V42C80.5 51.4705 80.4968 58.4225 79.7811 63.7456C79.0713 69.0255 77.6853 72.4777 75.0815 75.0815C72.4777 77.6853 69.0255 79.0713 63.7456 79.7811C58.4225 80.4968 51.4705 80.5 42 80.5H40C30.5295 80.5 23.5775 80.4968 18.2544 79.7811C12.9745 79.0713 9.5223 77.6853 6.91852 75.0815C4.31475 72.4777 2.92873 69.0255 2.21886 63.7456C1.50319 58.4225 1.5 51.4705 1.5 42V40Z" stroke="#F5ECBC" stroke-width="3"/>
</svg>
